solid CATIA STL
  facet normal  -0.000000e+000  0.000000e+000 -1.000000e+000
    outer loop
      vertex -1.554312e-015  1.680000e+001  2.200000e+000
      vertex  3.200000e+001  1.680000e+001  2.200000e+000
      vertex -1.554312e-015  8.200000e+000  2.200000e+000
    endloop
  endfacet
  facet normal  0.000000e+000  0.000000e+000 -1.000000e+000
    outer loop
      vertex -1.554312e-015  8.200000e+000  2.200000e+000
      vertex  3.200000e+001  1.680000e+001  2.200000e+000
      vertex  3.200000e+001  8.200000e+000  2.200000e+000
    endloop
  endfacet
  facet normal  0.000000e+000 -1.000000e+000  -0.000000e+000
    outer loop
      vertex  3.200000e+001  1.700000e+001  0.000000e+000
      vertex  3.200000e+001  1.700000e+001  2.000000e+000
      vertex  0.000000e+000  1.700000e+001  0.000000e+000
    endloop
  endfacet
  facet normal  0.000000e+000 -1.000000e+000  0.000000e+000
    outer loop
      vertex  0.000000e+000  1.700000e+001  0.000000e+000
      vertex  3.200000e+001  1.700000e+001  2.000000e+000
      vertex  0.000000e+000  1.700000e+001  2.000000e+000
    endloop
  endfacet
  facet normal -1.000000e+000  0.000000e+000  5.978123e-016
    outer loop
      vertex -1.554312e-015  1.680000e+001  2.200000e+000
      vertex -1.554312e-015  8.200000e+000  2.200000e+000
      vertex  0.000000e+000  3.000000e+000  4.800000e+000
    endloop
  endfacet
  facet normal -1.000000e+000  0.000000e+000  5.978123e-016
    outer loop
      vertex -1.554312e-015  1.680000e+001  2.200000e+000
      vertex  0.000000e+000  3.000000e+000  4.800000e+000
      vertex  0.000000e+000  1.580000e+001  4.800000e+000
    endloop
  endfacet
  facet normal -1.000000e+000 -2.135933e-016  5.156612e-016
    outer loop
      vertex -1.554312e-015  1.680000e+001  2.200000e+000
      vertex  0.000000e+000  1.580000e+001  4.800000e+000
      vertex  0.000000e+000  1.594142e+001  4.858579e+000
    endloop
  endfacet
  facet normal -1.000000e+000 -7.930996e-016  3.285119e-016
    outer loop
      vertex -1.554312e-015  1.680000e+001  2.200000e+000
      vertex  0.000000e+000  1.594142e+001  4.858579e+000
      vertex  0.000000e+000  1.600000e+001  5.000000e+000
    endloop
  endfacet
  facet normal -1.000000e+000 -1.942892e-015  0.000000e+000
    outer loop
      vertex -1.554312e-015  1.680000e+001  2.200000e+000
      vertex  0.000000e+000  1.600000e+001  5.000000e+000
      vertex  0.000000e+000  1.600000e+001  1.680000e+001
    endloop
  endfacet
  facet normal -1.000000e+000  4.736951e-015  3.660185e-016
    outer loop
      vertex -1.554312e-015  1.680000e+001  2.200000e+000
      vertex  0.000000e+000  1.600000e+001  1.680000e+001
      vertex  1.421085e-014  1.900000e+001  1.680000e+001
    endloop
  endfacet
  facet normal -1.000000e+000 -6.146411e-015 -1.169501e-014
    outer loop
      vertex  0.000000e+000  3.000000e+000  4.800000e+000
      vertex -1.554312e-015  8.200000e+000  2.200000e+000
      vertex  0.000000e+000  8.058578e+000  2.141421e+000
    endloop
  endfacet
  facet normal -1.000000e+000  -0.000000e+000  0.000000e+000
    outer loop
      vertex  0.000000e+000  3.000000e+000  4.800000e+000
      vertex  0.000000e+000  8.058578e+000  2.141421e+000
      vertex  0.000000e+000  8.000000e+000  2.000000e+000
    endloop
  endfacet
  facet normal -1.000000e+000  -0.000000e+000  -0.000000e+000
    outer loop
      vertex  0.000000e+000  3.000000e+000  4.800000e+000
      vertex  0.000000e+000  8.000000e+000  2.000000e+000
      vertex  0.000000e+000  8.000000e+000  0.000000e+000
    endloop
  endfacet
  facet normal -1.000000e+000  0.000000e+000  0.000000e+000
    outer loop
      vertex  0.000000e+000  3.000000e+000  4.800000e+000
      vertex  0.000000e+000  8.000000e+000  0.000000e+000
      vertex  0.000000e+000  0.000000e+000  0.000000e+000
    endloop
  endfacet
  facet normal -1.000000e+000  0.000000e+000  0.000000e+000
    outer loop
      vertex  0.000000e+000  3.000000e+000  4.800000e+000
      vertex  0.000000e+000  0.000000e+000  0.000000e+000
      vertex  0.000000e+000  0.000000e+000  1.680000e+001
    endloop
  endfacet
  facet normal -9.999999e-001  0.000000e+000  0.000000e+000
    outer loop
      vertex  0.000000e+000  3.000000e+000  4.800000e+000
      vertex  0.000000e+000  0.000000e+000  1.680000e+001
      vertex  0.000000e+000  3.000000e+000  1.680000e+001
    endloop
  endfacet
  facet normal -1.000000e+000  7.105427e-015  0.000000e+000
    outer loop
      vertex  1.421085e-014  1.900000e+001  1.680000e+001
      vertex  1.421085e-014  1.900000e+001  0.000000e+000
      vertex  0.000000e+000  1.700000e+001  0.000000e+000
    endloop
  endfacet
  facet normal -1.000000e+000  7.105427e-015  0.000000e+000
    outer loop
      vertex  1.421085e-014  1.900000e+001  1.680000e+001
      vertex  0.000000e+000  1.700000e+001  0.000000e+000
      vertex  0.000000e+000  1.700000e+001  2.000000e+000
    endloop
  endfacet
  facet normal -1.000000e+000  1.747878e-015  7.239932e-016
    outer loop
      vertex  1.421085e-014  1.900000e+001  1.680000e+001
      vertex  0.000000e+000  1.700000e+001  2.000000e+000
      vertex  0.000000e+000  1.694142e+001  2.141421e+000
    endloop
  endfacet
  facet normal -1.000000e+000  1.076589e-014 -5.424515e-016
    outer loop
      vertex  1.421085e-014  1.900000e+001  1.680000e+001
      vertex  0.000000e+000  1.694142e+001  2.141421e+000
      vertex -1.554312e-015  1.680000e+001  2.200000e+000
    endloop
  endfacet
  facet normal  1.000000e+000  0.000000e+000  0.000000e+000
    outer loop
      vertex  3.200000e+001  1.900000e+001  0.000000e+000
      vertex  3.200000e+001  1.700000e+001  2.000000e+000
      vertex  3.200000e+001  1.700000e+001  0.000000e+000
    endloop
  endfacet
  facet normal  1.000000e+000  0.000000e+000  0.000000e+000
    outer loop
      vertex  3.200000e+001  1.680000e+001  2.200000e+000
      vertex  3.200000e+001  1.600000e+001  5.000000e+000
      vertex  3.200000e+001  1.594142e+001  4.858579e+000
    endloop
  endfacet
  facet normal  1.000000e+000  0.000000e+000  0.000000e+000
    outer loop
      vertex  3.200000e+001  1.680000e+001  2.200000e+000
      vertex  3.200000e+001  1.594142e+001  4.858579e+000
      vertex  3.200000e+001  1.580000e+001  4.800000e+000
    endloop
  endfacet
  facet normal  1.000000e+000  0.000000e+000  0.000000e+000
    outer loop
      vertex  3.200000e+001  1.680000e+001  2.200000e+000
      vertex  3.200000e+001  1.580000e+001  4.800000e+000
      vertex  3.200000e+001  3.000000e+000  4.800000e+000
    endloop
  endfacet
  facet normal  1.000000e+000  0.000000e+000  0.000000e+000
    outer loop
      vertex  3.200000e+001  1.680000e+001  2.200000e+000
      vertex  3.200000e+001  3.000000e+000  4.800000e+000
      vertex  3.200000e+001  8.200000e+000  2.200000e+000
    endloop
  endfacet
  facet normal  1.000000e+000  -0.000000e+000  0.000000e+000
    outer loop
      vertex  3.200000e+001  1.600000e+001  1.680000e+001
      vertex  3.200000e+001  1.600000e+001  5.000000e+000
      vertex  3.200000e+001  1.680000e+001  2.200000e+000
    endloop
  endfacet
  facet normal  1.000000e+000  -0.000000e+000  -0.000000e+000
    outer loop
      vertex  3.200000e+001  1.600000e+001  1.680000e+001
      vertex  3.200000e+001  1.680000e+001  2.200000e+000
      vertex  3.200000e+001  1.694142e+001  2.141421e+000
    endloop
  endfacet
  facet normal  1.000000e+000  -0.000000e+000  -0.000000e+000
    outer loop
      vertex  3.200000e+001  1.600000e+001  1.680000e+001
      vertex  3.200000e+001  1.694142e+001  2.141421e+000
      vertex  3.200000e+001  1.700000e+001  2.000000e+000
    endloop
  endfacet
  facet normal  1.000000e+000  -0.000000e+000  -0.000000e+000
    outer loop
      vertex  3.200000e+001  1.600000e+001  1.680000e+001
      vertex  3.200000e+001  1.700000e+001  2.000000e+000
      vertex  3.200000e+001  1.900000e+001  0.000000e+000
    endloop
  endfacet
  facet normal  1.000000e+000  0.000000e+000  -0.000000e+000
    outer loop
      vertex  3.200000e+001  1.600000e+001  1.680000e+001
      vertex  3.200000e+001  1.900000e+001  0.000000e+000
      vertex  3.200000e+001  1.900000e+001  1.680000e+001
    endloop
  endfacet
  facet normal  9.999999e-001  0.000000e+000  0.000000e+000
    outer loop
      vertex  3.200000e+001  3.000000e+000  4.800000e+000
      vertex  3.200000e+001  3.000000e+000  1.680000e+001
      vertex  3.200000e+001  0.000000e+000  1.680000e+001
    endloop
  endfacet
  facet normal  1.000000e+000  0.000000e+000  0.000000e+000
    outer loop
      vertex  3.200000e+001  3.000000e+000  4.800000e+000
      vertex  3.200000e+001  0.000000e+000  1.680000e+001
      vertex  3.200000e+001  0.000000e+000  0.000000e+000
    endloop
  endfacet
  facet normal  1.000000e+000  0.000000e+000  0.000000e+000
    outer loop
      vertex  3.200000e+001  3.000000e+000  4.800000e+000
      vertex  3.200000e+001  0.000000e+000  0.000000e+000
      vertex  3.200000e+001  8.000000e+000  0.000000e+000
    endloop
  endfacet
  facet normal  1.000000e+000  0.000000e+000  -0.000000e+000
    outer loop
      vertex  3.200000e+001  3.000000e+000  4.800000e+000
      vertex  3.200000e+001  8.000000e+000  0.000000e+000
      vertex  3.200000e+001  8.000000e+000  2.000000e+000
    endloop
  endfacet
  facet normal  1.000000e+000  0.000000e+000  -0.000000e+000
    outer loop
      vertex  3.200000e+001  3.000000e+000  4.800000e+000
      vertex  3.200000e+001  8.000000e+000  2.000000e+000
      vertex  3.200000e+001  8.058578e+000  2.141421e+000
    endloop
  endfacet
  facet normal  1.000000e+000  0.000000e+000  -0.000000e+000
    outer loop
      vertex  3.200000e+001  3.000000e+000  4.800000e+000
      vertex  3.200000e+001  8.058578e+000  2.141421e+000
      vertex  3.200000e+001  8.200000e+000  2.200000e+000
    endloop
  endfacet
  facet normal  0.000000e+000 -3.826818e-001 -9.238802e-001
    outer loop
      vertex  3.200000e+001  1.680000e+001  2.200000e+000
      vertex -1.554312e-015  1.680000e+001  2.200000e+000
      vertex  3.200000e+001  1.694142e+001  2.141421e+000
    endloop
  endfacet
  facet normal  -0.000000e+000 -3.826818e-001 -9.238802e-001
    outer loop
      vertex  3.200000e+001  1.694142e+001  2.141421e+000
      vertex -1.554312e-015  1.680000e+001  2.200000e+000
      vertex  0.000000e+000  1.694142e+001  2.141421e+000
    endloop
  endfacet
  facet normal  0.000000e+000 -9.238799e-001 -3.826827e-001
    outer loop
      vertex  3.200000e+001  1.694142e+001  2.141421e+000
      vertex  0.000000e+000  1.694142e+001  2.141421e+000
      vertex  3.200000e+001  1.700000e+001  2.000000e+000
    endloop
  endfacet
  facet normal  -0.000000e+000 -9.238799e-001 -3.826827e-001
    outer loop
      vertex  3.200000e+001  1.700000e+001  2.000000e+000
      vertex  0.000000e+000  1.694142e+001  2.141421e+000
      vertex  0.000000e+000  1.700000e+001  2.000000e+000
    endloop
  endfacet
  facet normal  0.000000e+000  1.000000e+000  0.000000e+000
    outer loop
      vertex  0.000000e+000  8.000000e+000  0.000000e+000
      vertex  0.000000e+000  8.000000e+000  2.000000e+000
      vertex  3.200000e+001  8.000000e+000  0.000000e+000
    endloop
  endfacet
  facet normal  0.000000e+000  1.000000e+000  -0.000000e+000
    outer loop
      vertex  3.200000e+001  8.000000e+000  0.000000e+000
      vertex  0.000000e+000  8.000000e+000  2.000000e+000
      vertex  3.200000e+001  8.000000e+000  2.000000e+000
    endloop
  endfacet
  facet normal  0.000000e+000  9.238799e-001 -3.826827e-001
    outer loop
      vertex  3.200000e+001  8.000000e+000  2.000000e+000
      vertex  0.000000e+000  8.000000e+000  2.000000e+000
      vertex  3.200000e+001  8.058578e+000  2.141421e+000
    endloop
  endfacet
  facet normal  0.000000e+000  9.238799e-001 -3.826827e-001
    outer loop
      vertex  3.200000e+001  8.058578e+000  2.141421e+000
      vertex  0.000000e+000  8.000000e+000  2.000000e+000
      vertex  0.000000e+000  8.058578e+000  2.141421e+000
    endloop
  endfacet
  facet normal  0.000000e+000  3.826840e-001 -9.238793e-001
    outer loop
      vertex  3.200000e+001  8.058578e+000  2.141421e+000
      vertex  0.000000e+000  8.058578e+000  2.141421e+000
      vertex  3.200000e+001  8.200000e+000  2.200000e+000
    endloop
  endfacet
  facet normal  0.000000e+000  3.826840e-001 -9.238793e-001
    outer loop
      vertex  3.200000e+001  8.200000e+000  2.200000e+000
      vertex  0.000000e+000  8.058578e+000  2.141421e+000
      vertex -1.554312e-015  8.200000e+000  2.200000e+000
    endloop
  endfacet
  facet normal  0.000000e+000  0.000000e+000 -1.000000e+000
    outer loop
      vertex  3.200000e+001  0.000000e+000  0.000000e+000
      vertex  0.000000e+000  0.000000e+000  0.000000e+000
      vertex  3.200000e+001  8.000000e+000  0.000000e+000
    endloop
  endfacet
  facet normal  -0.000000e+000  0.000000e+000 -1.000000e+000
    outer loop
      vertex  3.200000e+001  8.000000e+000  0.000000e+000
      vertex  0.000000e+000  0.000000e+000  0.000000e+000
      vertex  0.000000e+000  8.000000e+000  0.000000e+000
    endloop
  endfacet
  facet normal  0.000000e+000  0.000000e+000 -1.000000e+000
    outer loop
      vertex  3.200000e+001  1.700000e+001  0.000000e+000
      vertex  0.000000e+000  1.700000e+001  0.000000e+000
      vertex  3.200000e+001  1.900000e+001  0.000000e+000
    endloop
  endfacet
  facet normal  -0.000000e+000  0.000000e+000 -1.000000e+000
    outer loop
      vertex  3.200000e+001  1.900000e+001  0.000000e+000
      vertex  0.000000e+000  1.700000e+001  0.000000e+000
      vertex  1.421085e-014  1.900000e+001  0.000000e+000
    endloop
  endfacet
  facet normal  0.000000e+000 -1.000000e+000  -0.000000e+000
    outer loop
      vertex  3.200000e+001  0.000000e+000  0.000000e+000
      vertex  1.250000e+001  0.000000e+000  1.080000e+001
      vertex  1.191421e+001  0.000000e+000  9.385786e+000
    endloop
  endfacet
  facet normal  0.000000e+000 -1.000000e+000  0.000000e+000
    outer loop
      vertex  0.000000e+000  0.000000e+000  1.680000e+001
      vertex  0.000000e+000  0.000000e+000  0.000000e+000
      vertex  8.500000e+000  0.000000e+000  1.080000e+001
    endloop
  endfacet
  facet normal  0.000000e+000 -9.999999e-001  0.000000e+000
    outer loop
      vertex  0.000000e+000  0.000000e+000  1.680000e+001
      vertex  8.500000e+000  0.000000e+000  1.080000e+001
      vertex  9.085787e+000  0.000000e+000  1.221421e+001
    endloop
  endfacet
  facet normal  0.000000e+000 -1.000000e+000  0.000000e+000
    outer loop
      vertex  0.000000e+000  0.000000e+000  1.680000e+001
      vertex  9.085787e+000  0.000000e+000  1.221421e+001
      vertex  1.050000e+001  0.000000e+000  1.280000e+001
    endloop
  endfacet
  facet normal  0.000000e+000 -1.000000e+000  0.000000e+000
    outer loop
      vertex  3.200000e+001  0.000000e+000  1.680000e+001
      vertex  0.000000e+000  0.000000e+000  1.680000e+001
      vertex  1.050000e+001  0.000000e+000  1.280000e+001
    endloop
  endfacet
  facet normal  0.000000e+000 -1.000000e+000  0.000000e+000
    outer loop
      vertex  3.200000e+001  0.000000e+000  1.680000e+001
      vertex  1.050000e+001  0.000000e+000  1.280000e+001
      vertex  1.191421e+001  0.000000e+000  1.221421e+001
    endloop
  endfacet
  facet normal  0.000000e+000 -1.000000e+000  0.000000e+000
    outer loop
      vertex  3.200000e+001  0.000000e+000  1.680000e+001
      vertex  1.191421e+001  0.000000e+000  1.221421e+001
      vertex  1.250000e+001  0.000000e+000  1.080000e+001
    endloop
  endfacet
  facet normal  0.000000e+000 -1.000000e+000  0.000000e+000
    outer loop
      vertex  3.200000e+001  0.000000e+000  1.680000e+001
      vertex  1.250000e+001  0.000000e+000  1.080000e+001
      vertex  3.200000e+001  0.000000e+000  0.000000e+000
    endloop
  endfacet
  facet normal  0.000000e+000 -1.000000e+000  0.000000e+000
    outer loop
      vertex  0.000000e+000  0.000000e+000  0.000000e+000
      vertex  3.200000e+001  0.000000e+000  0.000000e+000
      vertex  1.191421e+001  0.000000e+000  9.385786e+000
    endloop
  endfacet
  facet normal  0.000000e+000 -1.000000e+000  0.000000e+000
    outer loop
      vertex  0.000000e+000  0.000000e+000  0.000000e+000
      vertex  1.191421e+001  0.000000e+000  9.385786e+000
      vertex  1.050000e+001  0.000000e+000  8.800000e+000
    endloop
  endfacet
  facet normal  -0.000000e+000 -1.000000e+000  0.000000e+000
    outer loop
      vertex  0.000000e+000  0.000000e+000  0.000000e+000
      vertex  1.050000e+001  0.000000e+000  8.800000e+000
      vertex  9.085787e+000  0.000000e+000  9.385786e+000
    endloop
  endfacet
  facet normal  -0.000000e+000 -1.000000e+000  0.000000e+000
    outer loop
      vertex  0.000000e+000  0.000000e+000  0.000000e+000
      vertex  9.085787e+000  0.000000e+000  9.385786e+000
      vertex  8.500000e+000  0.000000e+000  1.080000e+001
    endloop
  endfacet
  facet normal  9.238796e-001  0.000000e+000 -3.826835e-001
    outer loop
      vertex  1.250000e+001  0.000000e+000  1.080000e+001
      vertex  1.250000e+001 -3.500000e+000  1.080000e+001
      vertex  1.191421e+001  0.000000e+000  9.385786e+000
    endloop
  endfacet
  facet normal  9.238796e-001  0.000000e+000 -3.826835e-001
    outer loop
      vertex  1.191421e+001  0.000000e+000  9.385786e+000
      vertex  1.250000e+001 -3.500000e+000  1.080000e+001
      vertex  1.191421e+001 -3.500000e+000  9.385786e+000
    endloop
  endfacet
  facet normal  3.826832e-001  0.000000e+000 -9.238797e-001
    outer loop
      vertex  1.191421e+001  0.000000e+000  9.385786e+000
      vertex  1.191421e+001 -3.500000e+000  9.385786e+000
      vertex  1.050000e+001  0.000000e+000  8.800000e+000
    endloop
  endfacet
  facet normal  3.826832e-001  0.000000e+000 -9.238797e-001
    outer loop
      vertex  1.050000e+001  0.000000e+000  8.800000e+000
      vertex  1.191421e+001 -3.500000e+000  9.385786e+000
      vertex  1.050000e+001 -3.500000e+000  8.800000e+000
    endloop
  endfacet
  facet normal -3.826832e-001  0.000000e+000 -9.238797e-001
    outer loop
      vertex  1.050000e+001  0.000000e+000  8.800000e+000
      vertex  1.050000e+001 -3.500000e+000  8.800000e+000
      vertex  9.085787e+000  0.000000e+000  9.385786e+000
    endloop
  endfacet
  facet normal -3.826832e-001  -0.000000e+000 -9.238797e-001
    outer loop
      vertex  9.085787e+000  0.000000e+000  9.385786e+000
      vertex  1.050000e+001 -3.500000e+000  8.800000e+000
      vertex  9.085787e+000 -3.500000e+000  9.385786e+000
    endloop
  endfacet
  facet normal -9.238796e-001  0.000000e+000 -3.826835e-001
    outer loop
      vertex  9.085787e+000  0.000000e+000  9.385786e+000
      vertex  9.085787e+000 -3.500000e+000  9.385786e+000
      vertex  8.500000e+000  0.000000e+000  1.080000e+001
    endloop
  endfacet
  facet normal -9.238796e-001  -0.000000e+000 -3.826835e-001
    outer loop
      vertex  8.500000e+000  0.000000e+000  1.080000e+001
      vertex  9.085787e+000 -3.500000e+000  9.385786e+000
      vertex  8.500000e+000 -3.500000e+000  1.080000e+001
    endloop
  endfacet
  facet normal -9.238794e-001  0.000000e+000  3.826837e-001
    outer loop
      vertex  8.500000e+000  0.000000e+000  1.080000e+001
      vertex  8.500000e+000 -3.500000e+000  1.080000e+001
      vertex  9.085787e+000  0.000000e+000  1.221421e+001
    endloop
  endfacet
  facet normal -9.238794e-001  0.000000e+000  3.826837e-001
    outer loop
      vertex  9.085787e+000  0.000000e+000  1.221421e+001
      vertex  8.500000e+000 -3.500000e+000  1.080000e+001
      vertex  9.085787e+000 -3.500000e+000  1.221421e+001
    endloop
  endfacet
  facet normal -3.826837e-001  0.000000e+000  9.238794e-001
    outer loop
      vertex  9.085787e+000  0.000000e+000  1.221421e+001
      vertex  9.085787e+000 -3.500000e+000  1.221421e+001
      vertex  1.050000e+001  0.000000e+000  1.280000e+001
    endloop
  endfacet
  facet normal -3.826837e-001  0.000000e+000  9.238794e-001
    outer loop
      vertex  1.050000e+001  0.000000e+000  1.280000e+001
      vertex  9.085787e+000 -3.500000e+000  1.221421e+001
      vertex  1.050000e+001 -3.500000e+000  1.280000e+001
    endloop
  endfacet
  facet normal  3.826837e-001  -0.000000e+000  9.238794e-001
    outer loop
      vertex  1.050000e+001  0.000000e+000  1.280000e+001
      vertex  1.050000e+001 -3.500000e+000  1.280000e+001
      vertex  1.191421e+001  0.000000e+000  1.221421e+001
    endloop
  endfacet
  facet normal  3.826837e-001  0.000000e+000  9.238794e-001
    outer loop
      vertex  1.191421e+001  0.000000e+000  1.221421e+001
      vertex  1.050000e+001 -3.500000e+000  1.280000e+001
      vertex  1.191421e+001 -3.500000e+000  1.221421e+001
    endloop
  endfacet
  facet normal  9.238794e-001  -0.000000e+000  3.826837e-001
    outer loop
      vertex  1.191421e+001  0.000000e+000  1.221421e+001
      vertex  1.191421e+001 -3.500000e+000  1.221421e+001
      vertex  1.250000e+001  0.000000e+000  1.080000e+001
    endloop
  endfacet
  facet normal  9.238794e-001  0.000000e+000  3.826837e-001
    outer loop
      vertex  1.250000e+001  0.000000e+000  1.080000e+001
      vertex  1.191421e+001 -3.500000e+000  1.221421e+001
      vertex  1.250000e+001 -3.500000e+000  1.080000e+001
    endloop
  endfacet
  facet normal  0.000000e+000 -1.000000e+000  0.000000e+000
    outer loop
      vertex  9.085787e+000 -3.500000e+000  1.221421e+001
      vertex  1.191421e+001 -3.500000e+000  1.221421e+001
      vertex  1.050000e+001 -3.500000e+000  1.280000e+001
    endloop
  endfacet
  facet normal  0.000000e+000 -1.000000e+000  0.000000e+000
    outer loop
      vertex  1.191421e+001 -3.500000e+000  1.221421e+001
      vertex  9.085787e+000 -3.500000e+000  1.221421e+001
      vertex  1.250000e+001 -3.500000e+000  1.080000e+001
    endloop
  endfacet
  facet normal  0.000000e+000 -9.999999e-001  0.000000e+000
    outer loop
      vertex  1.250000e+001 -3.500000e+000  1.080000e+001
      vertex  9.085787e+000 -3.500000e+000  1.221421e+001
      vertex  8.500000e+000 -3.500000e+000  1.080000e+001
    endloop
  endfacet
  facet normal  0.000000e+000 -9.999999e-001  0.000000e+000
    outer loop
      vertex  1.250000e+001 -3.500000e+000  1.080000e+001
      vertex  8.500000e+000 -3.500000e+000  1.080000e+001
      vertex  1.191421e+001 -3.500000e+000  9.385786e+000
    endloop
  endfacet
  facet normal  0.000000e+000 -1.000000e+000  0.000000e+000
    outer loop
      vertex  1.191421e+001 -3.500000e+000  9.385786e+000
      vertex  8.500000e+000 -3.500000e+000  1.080000e+001
      vertex  9.085787e+000 -3.500000e+000  9.385786e+000
    endloop
  endfacet
  facet normal  0.000000e+000 -1.000000e+000  0.000000e+000
    outer loop
      vertex  1.191421e+001 -3.500000e+000  9.385786e+000
      vertex  9.085787e+000 -3.500000e+000  9.385786e+000
      vertex  1.050000e+001 -3.500000e+000  8.800000e+000
    endloop
  endfacet
  facet normal  0.000000e+000 -1.000000e+000  0.000000e+000
    outer loop
      vertex  3.085000e+001  1.600000e+001  1.080000e+001
      vertex  3.048388e+001  1.600000e+001  9.916117e+000
      vertex  3.200000e+001  1.600000e+001  5.000000e+000
    endloop
  endfacet
  facet normal  0.000000e+000 -9.999999e-001  0.000000e+000
    outer loop
      vertex  3.200000e+001  1.600000e+001  1.680000e+001
      vertex  2.750000e+001  1.600000e+001  1.680000e+001
      vertex  3.048388e+001  1.600000e+001  1.168388e+001
    endloop
  endfacet
  facet normal  0.000000e+000 -9.999999e-001  0.000000e+000
    outer loop
      vertex  3.200000e+001  1.600000e+001  1.680000e+001
      vertex  3.048388e+001  1.600000e+001  1.168388e+001
      vertex  3.085000e+001  1.600000e+001  1.080000e+001
    endloop
  endfacet
  facet normal  0.000000e+000 -1.000000e+000  0.000000e+000
    outer loop
      vertex  3.200000e+001  1.600000e+001  1.680000e+001
      vertex  3.085000e+001  1.600000e+001  1.080000e+001
      vertex  3.200000e+001  1.600000e+001  5.000000e+000
    endloop
  endfacet
  facet normal  0.000000e+000 -1.000000e+000  0.000000e+000
    outer loop
      vertex  2.750000e+001  1.600000e+001  1.680000e+001
      vertex  2.750000e+001  1.600000e+001  5.000000e+000
      vertex  2.835000e+001  1.600000e+001  1.080000e+001
    endloop
  endfacet
  facet normal  0.000000e+000 -1.000000e+000  0.000000e+000
    outer loop
      vertex  2.750000e+001  1.600000e+001  1.680000e+001
      vertex  2.835000e+001  1.600000e+001  1.080000e+001
      vertex  2.871612e+001  1.600000e+001  1.168388e+001
    endloop
  endfacet
  facet normal  0.000000e+000 -1.000000e+000  0.000000e+000
    outer loop
      vertex  2.750000e+001  1.600000e+001  1.680000e+001
      vertex  2.871612e+001  1.600000e+001  1.168388e+001
      vertex  2.960000e+001  1.600000e+001  1.205000e+001
    endloop
  endfacet
  facet normal  0.000000e+000 -1.000000e+000  0.000000e+000
    outer loop
      vertex  2.750000e+001  1.600000e+001  1.680000e+001
      vertex  2.960000e+001  1.600000e+001  1.205000e+001
      vertex  3.048388e+001  1.600000e+001  1.168388e+001
    endloop
  endfacet
  facet normal  0.000000e+000 -1.000000e+000  0.000000e+000
    outer loop
      vertex  2.750000e+001  1.600000e+001  5.000000e+000
      vertex  3.200000e+001  1.600000e+001  5.000000e+000
      vertex  3.048388e+001  1.600000e+001  9.916117e+000
    endloop
  endfacet
  facet normal  0.000000e+000 -1.000000e+000  0.000000e+000
    outer loop
      vertex  2.750000e+001  1.600000e+001  5.000000e+000
      vertex  3.048388e+001  1.600000e+001  9.916117e+000
      vertex  2.960000e+001  1.600000e+001  9.550000e+000
    endloop
  endfacet
  facet normal  -0.000000e+000 -1.000000e+000  0.000000e+000
    outer loop
      vertex  2.750000e+001  1.600000e+001  5.000000e+000
      vertex  2.960000e+001  1.600000e+001  9.550000e+000
      vertex  2.871612e+001  1.600000e+001  9.916117e+000
    endloop
  endfacet
  facet normal  -0.000000e+000 -1.000000e+000  0.000000e+000
    outer loop
      vertex  2.750000e+001  1.600000e+001  5.000000e+000
      vertex  2.871612e+001  1.600000e+001  9.916117e+000
      vertex  2.835000e+001  1.600000e+001  1.080000e+001
    endloop
  endfacet
  facet normal  0.000000e+000  1.000000e+000  0.000000e+000
    outer loop
      vertex  1.421085e-014  1.900000e+001  1.680000e+001
      vertex  1.516116e+000  1.900000e+001  1.168388e+001
      vertex  1.150000e+000  1.900000e+001  1.080000e+001
    endloop
  endfacet
  facet normal  0.000000e+000  9.999999e-001  0.000000e+000
    outer loop
      vertex  2.750000e+001  1.900000e+001  1.680000e+001
      vertex  3.200000e+001  1.900000e+001  1.680000e+001
      vertex  2.871612e+001  1.900000e+001  1.168388e+001
    endloop
  endfacet
  facet normal  0.000000e+000  1.000000e+000  0.000000e+000
    outer loop
      vertex  2.750000e+001  1.900000e+001  1.680000e+001
      vertex  2.871612e+001  1.900000e+001  1.168388e+001
      vertex  2.835000e+001  1.900000e+001  1.080000e+001
    endloop
  endfacet
  facet normal  0.000000e+000  1.000000e+000  0.000000e+000
    outer loop
      vertex  2.750000e+001  1.900000e+001  1.680000e+001
      vertex  2.835000e+001  1.900000e+001  1.080000e+001
      vertex  2.750000e+001  1.900000e+001  4.800000e+000
    endloop
  endfacet
  facet normal  0.000000e+000  1.000000e+000  0.000000e+000
    outer loop
      vertex  1.421085e-014  1.900000e+001  0.000000e+000
      vertex  1.421085e-014  1.900000e+001  1.680000e+001
      vertex  1.150000e+000  1.900000e+001  1.080000e+001
    endloop
  endfacet
  facet normal  0.000000e+000  1.000000e+000  0.000000e+000
    outer loop
      vertex  1.421085e-014  1.900000e+001  0.000000e+000
      vertex  1.150000e+000  1.900000e+001  1.080000e+001
      vertex  1.516116e+000  1.900000e+001  9.916117e+000
    endloop
  endfacet
  facet normal  0.000000e+000  1.000000e+000  0.000000e+000
    outer loop
      vertex  1.421085e-014  1.900000e+001  0.000000e+000
      vertex  1.516116e+000  1.900000e+001  9.916117e+000
      vertex  4.500000e+000  1.900000e+001  4.800000e+000
    endloop
  endfacet
  facet normal  -0.000000e+000  1.000000e+000  0.000000e+000
    outer loop
      vertex  1.421085e-014  1.900000e+001  0.000000e+000
      vertex  4.500000e+000  1.900000e+001  4.800000e+000
      vertex  2.750000e+001  1.900000e+001  4.800000e+000
    endloop
  endfacet
  facet normal  0.000000e+000  1.000000e+000  0.000000e+000
    outer loop
      vertex  1.421085e-014  1.900000e+001  0.000000e+000
      vertex  2.750000e+001  1.900000e+001  4.800000e+000
      vertex  3.200000e+001  1.900000e+001  0.000000e+000
    endloop
  endfacet
  facet normal  -0.000000e+000  1.000000e+000  0.000000e+000
    outer loop
      vertex  3.200000e+001  1.900000e+001  0.000000e+000
      vertex  2.750000e+001  1.900000e+001  4.800000e+000
      vertex  2.835000e+001  1.900000e+001  1.080000e+001
    endloop
  endfacet
  facet normal  0.000000e+000  1.000000e+000  0.000000e+000
    outer loop
      vertex  3.200000e+001  1.900000e+001  0.000000e+000
      vertex  2.835000e+001  1.900000e+001  1.080000e+001
      vertex  2.871612e+001  1.900000e+001  9.916117e+000
    endloop
  endfacet
  facet normal  0.000000e+000  1.000000e+000  0.000000e+000
    outer loop
      vertex  3.200000e+001  1.900000e+001  0.000000e+000
      vertex  2.871612e+001  1.900000e+001  9.916117e+000
      vertex  2.960000e+001  1.900000e+001  9.550000e+000
    endloop
  endfacet
  facet normal  -0.000000e+000  1.000000e+000  0.000000e+000
    outer loop
      vertex  3.200000e+001  1.900000e+001  0.000000e+000
      vertex  2.960000e+001  1.900000e+001  9.550000e+000
      vertex  3.048388e+001  1.900000e+001  9.916117e+000
    endloop
  endfacet
  facet normal  -0.000000e+000  1.000000e+000  0.000000e+000
    outer loop
      vertex  3.200000e+001  1.900000e+001  0.000000e+000
      vertex  3.048388e+001  1.900000e+001  9.916117e+000
      vertex  3.085000e+001  1.900000e+001  1.080000e+001
    endloop
  endfacet
  facet normal  -0.000000e+000  9.999999e-001  0.000000e+000
    outer loop
      vertex  3.200000e+001  1.900000e+001  0.000000e+000
      vertex  3.085000e+001  1.900000e+001  1.080000e+001
      vertex  3.200000e+001  1.900000e+001  1.680000e+001
    endloop
  endfacet
  facet normal  0.000000e+000  9.999999e-001  -0.000000e+000
    outer loop
      vertex  4.500000e+000  1.900000e+001  1.680000e+001
      vertex  4.500000e+000  1.900000e+001  4.800000e+000
      vertex  3.650000e+000  1.900000e+001  1.080000e+001
    endloop
  endfacet
  facet normal  0.000000e+000  1.000000e+000  -0.000000e+000
    outer loop
      vertex  4.500000e+000  1.900000e+001  1.680000e+001
      vertex  3.650000e+000  1.900000e+001  1.080000e+001
      vertex  3.283884e+000  1.900000e+001  1.168388e+001
    endloop
  endfacet
  facet normal  0.000000e+000  1.000000e+000  -0.000000e+000
    outer loop
      vertex  4.500000e+000  1.900000e+001  1.680000e+001
      vertex  3.283884e+000  1.900000e+001  1.168388e+001
      vertex  2.400000e+000  1.900000e+001  1.205000e+001
    endloop
  endfacet
  facet normal  0.000000e+000  9.999999e-001  -0.000000e+000
    outer loop
      vertex  4.500000e+000  1.900000e+001  1.680000e+001
      vertex  2.400000e+000  1.900000e+001  1.205000e+001
      vertex  1.516116e+000  1.900000e+001  1.168388e+001
    endloop
  endfacet
  facet normal  0.000000e+000  9.999999e-001  -0.000000e+000
    outer loop
      vertex  4.500000e+000  1.900000e+001  1.680000e+001
      vertex  1.516116e+000  1.900000e+001  1.168388e+001
      vertex  1.421085e-014  1.900000e+001  1.680000e+001
    endloop
  endfacet
  facet normal  0.000000e+000  9.999999e-001  0.000000e+000
    outer loop
      vertex  4.500000e+000  1.900000e+001  4.800000e+000
      vertex  1.516116e+000  1.900000e+001  9.916117e+000
      vertex  2.400000e+000  1.900000e+001  9.550000e+000
    endloop
  endfacet
  facet normal  -0.000000e+000  1.000000e+000  0.000000e+000
    outer loop
      vertex  4.500000e+000  1.900000e+001  4.800000e+000
      vertex  2.400000e+000  1.900000e+001  9.550000e+000
      vertex  3.283884e+000  1.900000e+001  9.916117e+000
    endloop
  endfacet
  facet normal  -0.000000e+000  1.000000e+000  0.000000e+000
    outer loop
      vertex  4.500000e+000  1.900000e+001  4.800000e+000
      vertex  3.283884e+000  1.900000e+001  9.916117e+000
      vertex  3.650000e+000  1.900000e+001  1.080000e+001
    endloop
  endfacet
  facet normal  0.000000e+000  9.999999e-001  -0.000000e+000
    outer loop
      vertex  3.200000e+001  1.900000e+001  1.680000e+001
      vertex  3.085000e+001  1.900000e+001  1.080000e+001
      vertex  3.048388e+001  1.900000e+001  1.168388e+001
    endloop
  endfacet
  facet normal  0.000000e+000  1.000000e+000  -0.000000e+000
    outer loop
      vertex  3.200000e+001  1.900000e+001  1.680000e+001
      vertex  3.048388e+001  1.900000e+001  1.168388e+001
      vertex  2.960000e+001  1.900000e+001  1.205000e+001
    endloop
  endfacet
  facet normal  0.000000e+000  1.000000e+000  -0.000000e+000
    outer loop
      vertex  3.200000e+001  1.900000e+001  1.680000e+001
      vertex  2.960000e+001  1.900000e+001  1.205000e+001
      vertex  2.871612e+001  1.900000e+001  1.168388e+001
    endloop
  endfacet
  facet normal  0.000000e+000 -1.000000e+000  0.000000e+000
    outer loop
      vertex  3.650000e+000  1.600000e+001  1.080000e+001
      vertex  3.283884e+000  1.600000e+001  9.916117e+000
      vertex  4.500000e+000  1.600000e+001  5.000000e+000
    endloop
  endfacet
  facet normal  0.000000e+000 -9.999999e-001  0.000000e+000
    outer loop
      vertex  4.500000e+000  1.600000e+001  1.680000e+001
      vertex  0.000000e+000  1.600000e+001  1.680000e+001
      vertex  3.283884e+000  1.600000e+001  1.168388e+001
    endloop
  endfacet
  facet normal  0.000000e+000 -1.000000e+000  0.000000e+000
    outer loop
      vertex  4.500000e+000  1.600000e+001  1.680000e+001
      vertex  3.283884e+000  1.600000e+001  1.168388e+001
      vertex  3.650000e+000  1.600000e+001  1.080000e+001
    endloop
  endfacet
  facet normal  0.000000e+000 -1.000000e+000  0.000000e+000
    outer loop
      vertex  4.500000e+000  1.600000e+001  1.680000e+001
      vertex  3.650000e+000  1.600000e+001  1.080000e+001
      vertex  4.500000e+000  1.600000e+001  5.000000e+000
    endloop
  endfacet
  facet normal  0.000000e+000 -9.999999e-001  0.000000e+000
    outer loop
      vertex  0.000000e+000  1.600000e+001  1.680000e+001
      vertex  0.000000e+000  1.600000e+001  5.000000e+000
      vertex  1.150000e+000  1.600000e+001  1.080000e+001
    endloop
  endfacet
  facet normal  0.000000e+000 -1.000000e+000  0.000000e+000
    outer loop
      vertex  0.000000e+000  1.600000e+001  1.680000e+001
      vertex  1.150000e+000  1.600000e+001  1.080000e+001
      vertex  1.516116e+000  1.600000e+001  1.168388e+001
    endloop
  endfacet
  facet normal  0.000000e+000 -1.000000e+000  0.000000e+000
    outer loop
      vertex  0.000000e+000  1.600000e+001  1.680000e+001
      vertex  1.516116e+000  1.600000e+001  1.168388e+001
      vertex  2.400000e+000  1.600000e+001  1.205000e+001
    endloop
  endfacet
  facet normal  0.000000e+000 -1.000000e+000  0.000000e+000
    outer loop
      vertex  0.000000e+000  1.600000e+001  1.680000e+001
      vertex  2.400000e+000  1.600000e+001  1.205000e+001
      vertex  3.283884e+000  1.600000e+001  1.168388e+001
    endloop
  endfacet
  facet normal  0.000000e+000 -1.000000e+000  0.000000e+000
    outer loop
      vertex  0.000000e+000  1.600000e+001  5.000000e+000
      vertex  4.500000e+000  1.600000e+001  5.000000e+000
      vertex  3.283884e+000  1.600000e+001  9.916117e+000
    endloop
  endfacet
  facet normal  0.000000e+000 -1.000000e+000  0.000000e+000
    outer loop
      vertex  0.000000e+000  1.600000e+001  5.000000e+000
      vertex  3.283884e+000  1.600000e+001  9.916117e+000
      vertex  2.400000e+000  1.600000e+001  9.550000e+000
    endloop
  endfacet
  facet normal  -0.000000e+000 -1.000000e+000  0.000000e+000
    outer loop
      vertex  0.000000e+000  1.600000e+001  5.000000e+000
      vertex  2.400000e+000  1.600000e+001  9.550000e+000
      vertex  1.516116e+000  1.600000e+001  9.916117e+000
    endloop
  endfacet
  facet normal  -0.000000e+000 -9.999999e-001  0.000000e+000
    outer loop
      vertex  0.000000e+000  1.600000e+001  5.000000e+000
      vertex  1.516116e+000  1.600000e+001  9.916117e+000
      vertex  1.150000e+000  1.600000e+001  1.080000e+001
    endloop
  endfacet
  facet normal  9.238799e-001  -0.000000e+000  3.826826e-001
    outer loop
      vertex  2.835000e+001  1.900000e+001  1.080000e+001
      vertex  2.835000e+001  1.600000e+001  1.080000e+001
      vertex  2.871612e+001  1.900000e+001  9.916117e+000
    endloop
  endfacet
  facet normal  9.238799e-001  0.000000e+000  3.826826e-001
    outer loop
      vertex  2.871612e+001  1.900000e+001  9.916117e+000
      vertex  2.835000e+001  1.600000e+001  1.080000e+001
      vertex  2.871612e+001  1.600000e+001  9.916117e+000
    endloop
  endfacet
  facet normal  3.826831e-001  -0.000000e+000  9.238797e-001
    outer loop
      vertex  2.871612e+001  1.900000e+001  9.916117e+000
      vertex  2.871612e+001  1.600000e+001  9.916117e+000
      vertex  2.960000e+001  1.900000e+001  9.550000e+000
    endloop
  endfacet
  facet normal  3.826831e-001  0.000000e+000  9.238797e-001
    outer loop
      vertex  2.960000e+001  1.900000e+001  9.550000e+000
      vertex  2.871612e+001  1.600000e+001  9.916117e+000
      vertex  2.960000e+001  1.600000e+001  9.550000e+000
    endloop
  endfacet
  facet normal -3.826838e-001  0.000000e+000  9.238794e-001
    outer loop
      vertex  2.960000e+001  1.900000e+001  9.550000e+000
      vertex  2.960000e+001  1.600000e+001  9.550000e+000
      vertex  3.048388e+001  1.900000e+001  9.916117e+000
    endloop
  endfacet
  facet normal -3.826838e-001  0.000000e+000  9.238794e-001
    outer loop
      vertex  3.048388e+001  1.900000e+001  9.916117e+000
      vertex  2.960000e+001  1.600000e+001  9.550000e+000
      vertex  3.048388e+001  1.600000e+001  9.916117e+000
    endloop
  endfacet
  facet normal -9.238793e-001  0.000000e+000  3.826843e-001
    outer loop
      vertex  3.048388e+001  1.900000e+001  9.916117e+000
      vertex  3.048388e+001  1.600000e+001  9.916117e+000
      vertex  3.085000e+001  1.900000e+001  1.080000e+001
    endloop
  endfacet
  facet normal -9.238793e-001  0.000000e+000  3.826843e-001
    outer loop
      vertex  3.085000e+001  1.900000e+001  1.080000e+001
      vertex  3.048388e+001  1.600000e+001  9.916117e+000
      vertex  3.085000e+001  1.600000e+001  1.080000e+001
    endloop
  endfacet
  facet normal -9.238793e-001  0.000000e+000 -3.826843e-001
    outer loop
      vertex  3.085000e+001  1.900000e+001  1.080000e+001
      vertex  3.085000e+001  1.600000e+001  1.080000e+001
      vertex  3.048388e+001  1.900000e+001  1.168388e+001
    endloop
  endfacet
  facet normal -9.238793e-001  -0.000000e+000 -3.826843e-001
    outer loop
      vertex  3.048388e+001  1.900000e+001  1.168388e+001
      vertex  3.085000e+001  1.600000e+001  1.080000e+001
      vertex  3.048388e+001  1.600000e+001  1.168388e+001
    endloop
  endfacet
  facet normal -3.826838e-001  0.000000e+000 -9.238794e-001
    outer loop
      vertex  3.048388e+001  1.900000e+001  1.168388e+001
      vertex  3.048388e+001  1.600000e+001  1.168388e+001
      vertex  2.960000e+001  1.900000e+001  1.205000e+001
    endloop
  endfacet
  facet normal -3.826838e-001  -0.000000e+000 -9.238794e-001
    outer loop
      vertex  2.960000e+001  1.900000e+001  1.205000e+001
      vertex  3.048388e+001  1.600000e+001  1.168388e+001
      vertex  2.960000e+001  1.600000e+001  1.205000e+001
    endloop
  endfacet
  facet normal  3.826831e-001  0.000000e+000 -9.238797e-001
    outer loop
      vertex  2.960000e+001  1.900000e+001  1.205000e+001
      vertex  2.960000e+001  1.600000e+001  1.205000e+001
      vertex  2.871612e+001  1.900000e+001  1.168388e+001
    endloop
  endfacet
  facet normal  3.826831e-001  0.000000e+000 -9.238797e-001
    outer loop
      vertex  2.871612e+001  1.900000e+001  1.168388e+001
      vertex  2.960000e+001  1.600000e+001  1.205000e+001
      vertex  2.871612e+001  1.600000e+001  1.168388e+001
    endloop
  endfacet
  facet normal  9.238799e-001  0.000000e+000 -3.826826e-001
    outer loop
      vertex  2.871612e+001  1.900000e+001  1.168388e+001
      vertex  2.871612e+001  1.600000e+001  1.168388e+001
      vertex  2.835000e+001  1.900000e+001  1.080000e+001
    endloop
  endfacet
  facet normal  9.238799e-001  0.000000e+000 -3.826826e-001
    outer loop
      vertex  2.835000e+001  1.900000e+001  1.080000e+001
      vertex  2.871612e+001  1.600000e+001  1.168388e+001
      vertex  2.835000e+001  1.600000e+001  1.080000e+001
    endloop
  endfacet
  facet normal -9.238795e-001  0.000000e+000 -3.826834e-001
    outer loop
      vertex  3.650000e+000  1.900000e+001  1.080000e+001
      vertex  3.650000e+000  1.600000e+001  1.080000e+001
      vertex  3.283884e+000  1.900000e+001  1.168388e+001
    endloop
  endfacet
  facet normal -9.238795e-001  -0.000000e+000 -3.826834e-001
    outer loop
      vertex  3.283884e+000  1.900000e+001  1.168388e+001
      vertex  3.650000e+000  1.600000e+001  1.080000e+001
      vertex  3.283884e+000  1.600000e+001  1.168388e+001
    endloop
  endfacet
  facet normal -3.826834e-001  0.000000e+000 -9.238795e-001
    outer loop
      vertex  3.283884e+000  1.900000e+001  1.168388e+001
      vertex  3.283884e+000  1.600000e+001  1.168388e+001
      vertex  2.400000e+000  1.900000e+001  1.205000e+001
    endloop
  endfacet
  facet normal -3.826834e-001  -0.000000e+000 -9.238795e-001
    outer loop
      vertex  2.400000e+000  1.900000e+001  1.205000e+001
      vertex  3.283884e+000  1.600000e+001  1.168388e+001
      vertex  2.400000e+000  1.600000e+001  1.205000e+001
    endloop
  endfacet
  facet normal  3.826833e-001  0.000000e+000 -9.238795e-001
    outer loop
      vertex  2.400000e+000  1.900000e+001  1.205000e+001
      vertex  2.400000e+000  1.600000e+001  1.205000e+001
      vertex  1.516116e+000  1.900000e+001  1.168388e+001
    endloop
  endfacet
  facet normal  3.826833e-001  0.000000e+000 -9.238795e-001
    outer loop
      vertex  1.516116e+000  1.900000e+001  1.168388e+001
      vertex  2.400000e+000  1.600000e+001  1.205000e+001
      vertex  1.516116e+000  1.600000e+001  1.168388e+001
    endloop
  endfacet
  facet normal  9.238795e-001  0.000000e+000 -3.826834e-001
    outer loop
      vertex  1.516116e+000  1.900000e+001  1.168388e+001
      vertex  1.516116e+000  1.600000e+001  1.168388e+001
      vertex  1.150000e+000  1.900000e+001  1.080000e+001
    endloop
  endfacet
  facet normal  9.238795e-001  0.000000e+000 -3.826834e-001
    outer loop
      vertex  1.150000e+000  1.900000e+001  1.080000e+001
      vertex  1.516116e+000  1.600000e+001  1.168388e+001
      vertex  1.150000e+000  1.600000e+001  1.080000e+001
    endloop
  endfacet
  facet normal  9.238795e-001  -0.000000e+000  3.826834e-001
    outer loop
      vertex  1.150000e+000  1.900000e+001  1.080000e+001
      vertex  1.150000e+000  1.600000e+001  1.080000e+001
      vertex  1.516116e+000  1.900000e+001  9.916117e+000
    endloop
  endfacet
  facet normal  9.238795e-001  0.000000e+000  3.826834e-001
    outer loop
      vertex  1.516116e+000  1.900000e+001  9.916117e+000
      vertex  1.150000e+000  1.600000e+001  1.080000e+001
      vertex  1.516116e+000  1.600000e+001  9.916117e+000
    endloop
  endfacet
  facet normal  3.826833e-001  -0.000000e+000  9.238795e-001
    outer loop
      vertex  1.516116e+000  1.900000e+001  9.916117e+000
      vertex  1.516116e+000  1.600000e+001  9.916117e+000
      vertex  2.400000e+000  1.900000e+001  9.550000e+000
    endloop
  endfacet
  facet normal  3.826833e-001  0.000000e+000  9.238795e-001
    outer loop
      vertex  2.400000e+000  1.900000e+001  9.550000e+000
      vertex  1.516116e+000  1.600000e+001  9.916117e+000
      vertex  2.400000e+000  1.600000e+001  9.550000e+000
    endloop
  endfacet
  facet normal -3.826834e-001  0.000000e+000  9.238795e-001
    outer loop
      vertex  2.400000e+000  1.900000e+001  9.550000e+000
      vertex  2.400000e+000  1.600000e+001  9.550000e+000
      vertex  3.283884e+000  1.900000e+001  9.916117e+000
    endloop
  endfacet
  facet normal -3.826834e-001  0.000000e+000  9.238795e-001
    outer loop
      vertex  3.283884e+000  1.900000e+001  9.916117e+000
      vertex  2.400000e+000  1.600000e+001  9.550000e+000
      vertex  3.283884e+000  1.600000e+001  9.916117e+000
    endloop
  endfacet
  facet normal -9.238795e-001  0.000000e+000  3.826834e-001
    outer loop
      vertex  3.283884e+000  1.900000e+001  9.916117e+000
      vertex  3.283884e+000  1.600000e+001  9.916117e+000
      vertex  3.650000e+000  1.900000e+001  1.080000e+001
    endloop
  endfacet
  facet normal -9.238795e-001  0.000000e+000  3.826834e-001
    outer loop
      vertex  3.650000e+000  1.900000e+001  1.080000e+001
      vertex  3.283884e+000  1.600000e+001  9.916117e+000
      vertex  3.650000e+000  1.600000e+001  1.080000e+001
    endloop
  endfacet
  facet normal  0.000000e+000  -0.000000e+000  1.000000e+000
    outer loop
      vertex  0.000000e+000  3.000000e+000  4.800000e+000
      vertex  3.200000e+001  3.000000e+000  4.800000e+000
      vertex  3.200000e+001  1.580000e+001  4.800000e+000
    endloop
  endfacet
  facet normal  0.000000e+000  0.000000e+000  1.000000e+000
    outer loop
      vertex  0.000000e+000  3.000000e+000  4.800000e+000
      vertex  3.200000e+001  1.580000e+001  4.800000e+000
      vertex  2.750000e+001  1.580000e+001  4.800000e+000
    endloop
  endfacet
  facet normal  0.000000e+000  0.000000e+000  1.000000e+000
    outer loop
      vertex  0.000000e+000  3.000000e+000  4.800000e+000
      vertex  2.750000e+001  1.580000e+001  4.800000e+000
      vertex  4.500000e+000  1.580000e+001  4.800000e+000
    endloop
  endfacet
  facet normal  0.000000e+000  0.000000e+000  1.000000e+000
    outer loop
      vertex  0.000000e+000  3.000000e+000  4.800000e+000
      vertex  4.500000e+000  1.580000e+001  4.800000e+000
      vertex  0.000000e+000  1.580000e+001  4.800000e+000
    endloop
  endfacet
  facet normal  0.000000e+000  0.000000e+000  1.000000e+000
    outer loop
      vertex  4.500000e+000  1.580000e+001  4.800000e+000
      vertex  2.750000e+001  1.580000e+001  4.800000e+000
      vertex  4.500000e+000  1.900000e+001  4.800000e+000
    endloop
  endfacet
  facet normal  -0.000000e+000  0.000000e+000  1.000000e+000
    outer loop
      vertex  4.500000e+000  1.900000e+001  4.800000e+000
      vertex  2.750000e+001  1.580000e+001  4.800000e+000
      vertex  2.750000e+001  1.900000e+001  4.800000e+000
    endloop
  endfacet
  facet normal  9.999999e-001  0.000000e+000  0.000000e+000
    outer loop
      vertex  4.500000e+000  1.900000e+001  4.800000e+000
      vertex  4.500000e+000  1.900000e+001  1.680000e+001
      vertex  4.500000e+000  1.600000e+001  1.680000e+001
    endloop
  endfacet
  facet normal  1.000000e+000  0.000000e+000  0.000000e+000
    outer loop
      vertex  4.500000e+000  1.900000e+001  4.800000e+000
      vertex  4.500000e+000  1.600000e+001  1.680000e+001
      vertex  4.500000e+000  1.600000e+001  5.000000e+000
    endloop
  endfacet
  facet normal  1.000000e+000  0.000000e+000  0.000000e+000
    outer loop
      vertex  4.500000e+000  1.900000e+001  4.800000e+000
      vertex  4.500000e+000  1.600000e+001  5.000000e+000
      vertex  4.500000e+000  1.594142e+001  4.858579e+000
    endloop
  endfacet
  facet normal  1.000000e+000  0.000000e+000  0.000000e+000
    outer loop
      vertex  4.500000e+000  1.900000e+001  4.800000e+000
      vertex  4.500000e+000  1.594142e+001  4.858579e+000
      vertex  4.500000e+000  1.580000e+001  4.800000e+000
    endloop
  endfacet
  facet normal  0.000000e+000 -9.238799e-001  3.826827e-001
    outer loop
      vertex  4.500000e+000  1.600000e+001  5.000000e+000
      vertex  0.000000e+000  1.600000e+001  5.000000e+000
      vertex  4.500000e+000  1.594142e+001  4.858579e+000
    endloop
  endfacet
  facet normal  0.000000e+000 -9.238799e-001  3.826827e-001
    outer loop
      vertex  4.500000e+000  1.594142e+001  4.858579e+000
      vertex  0.000000e+000  1.600000e+001  5.000000e+000
      vertex  0.000000e+000  1.594142e+001  4.858579e+000
    endloop
  endfacet
  facet normal  0.000000e+000 -3.826827e-001  9.238799e-001
    outer loop
      vertex  4.500000e+000  1.594142e+001  4.858579e+000
      vertex  0.000000e+000  1.594142e+001  4.858579e+000
      vertex  4.500000e+000  1.580000e+001  4.800000e+000
    endloop
  endfacet
  facet normal  0.000000e+000 -3.826827e-001  9.238799e-001
    outer loop
      vertex  4.500000e+000  1.580000e+001  4.800000e+000
      vertex  0.000000e+000  1.594142e+001  4.858579e+000
      vertex  0.000000e+000  1.580000e+001  4.800000e+000
    endloop
  endfacet
  facet normal -1.000000e+000  0.000000e+000  0.000000e+000
    outer loop
      vertex  2.750000e+001  1.900000e+001  4.800000e+000
      vertex  2.750000e+001  1.580000e+001  4.800000e+000
      vertex  2.750000e+001  1.594142e+001  4.858579e+000
    endloop
  endfacet
  facet normal -1.000000e+000  0.000000e+000  0.000000e+000
    outer loop
      vertex  2.750000e+001  1.900000e+001  4.800000e+000
      vertex  2.750000e+001  1.594142e+001  4.858579e+000
      vertex  2.750000e+001  1.600000e+001  5.000000e+000
    endloop
  endfacet
  facet normal -1.000000e+000  0.000000e+000  0.000000e+000
    outer loop
      vertex  2.750000e+001  1.900000e+001  4.800000e+000
      vertex  2.750000e+001  1.600000e+001  5.000000e+000
      vertex  2.750000e+001  1.600000e+001  1.680000e+001
    endloop
  endfacet
  facet normal -9.999999e-001  0.000000e+000  0.000000e+000
    outer loop
      vertex  2.750000e+001  1.900000e+001  4.800000e+000
      vertex  2.750000e+001  1.600000e+001  1.680000e+001
      vertex  2.750000e+001  1.900000e+001  1.680000e+001
    endloop
  endfacet
  facet normal  0.000000e+000 -9.238799e-001  3.826827e-001
    outer loop
      vertex  3.200000e+001  1.600000e+001  5.000000e+000
      vertex  2.750000e+001  1.600000e+001  5.000000e+000
      vertex  3.200000e+001  1.594142e+001  4.858579e+000
    endloop
  endfacet
  facet normal  0.000000e+000 -9.238799e-001  3.826827e-001
    outer loop
      vertex  3.200000e+001  1.594142e+001  4.858579e+000
      vertex  2.750000e+001  1.600000e+001  5.000000e+000
      vertex  2.750000e+001  1.594142e+001  4.858579e+000
    endloop
  endfacet
  facet normal  0.000000e+000 -3.826827e-001  9.238799e-001
    outer loop
      vertex  3.200000e+001  1.594142e+001  4.858579e+000
      vertex  2.750000e+001  1.594142e+001  4.858579e+000
      vertex  3.200000e+001  1.580000e+001  4.800000e+000
    endloop
  endfacet
  facet normal  0.000000e+000 -3.826827e-001  9.238799e-001
    outer loop
      vertex  3.200000e+001  1.580000e+001  4.800000e+000
      vertex  2.750000e+001  1.594142e+001  4.858579e+000
      vertex  2.750000e+001  1.580000e+001  4.800000e+000
    endloop
  endfacet
  facet normal  0.000000e+000  0.000000e+000  1.000000e+000
    outer loop
      vertex  2.750000e+001  1.600000e+001  1.680000e+001
      vertex  3.200000e+001  1.600000e+001  1.680000e+001
      vertex  2.750000e+001  1.900000e+001  1.680000e+001
    endloop
  endfacet
  facet normal  -0.000000e+000  0.000000e+000  1.000000e+000
    outer loop
      vertex  2.750000e+001  1.900000e+001  1.680000e+001
      vertex  3.200000e+001  1.600000e+001  1.680000e+001
      vertex  3.200000e+001  1.900000e+001  1.680000e+001
    endloop
  endfacet
  facet normal  0.000000e+000  0.000000e+000  1.000000e+000
    outer loop
      vertex  0.000000e+000  1.600000e+001  1.680000e+001
      vertex  4.500000e+000  1.600000e+001  1.680000e+001
      vertex  1.421085e-014  1.900000e+001  1.680000e+001
    endloop
  endfacet
  facet normal  -0.000000e+000  0.000000e+000  1.000000e+000
    outer loop
      vertex  1.421085e-014  1.900000e+001  1.680000e+001
      vertex  4.500000e+000  1.600000e+001  1.680000e+001
      vertex  4.500000e+000  1.900000e+001  1.680000e+001
    endloop
  endfacet
  facet normal  0.000000e+000  0.000000e+000  1.000000e+000
    outer loop
      vertex  0.000000e+000  0.000000e+000  1.680000e+001
      vertex  3.200000e+001  0.000000e+000  1.680000e+001
      vertex  0.000000e+000  3.000000e+000  1.680000e+001
    endloop
  endfacet
  facet normal  -0.000000e+000  0.000000e+000  1.000000e+000
    outer loop
      vertex  0.000000e+000  3.000000e+000  1.680000e+001
      vertex  3.200000e+001  0.000000e+000  1.680000e+001
      vertex  3.200000e+001  3.000000e+000  1.680000e+001
    endloop
  endfacet
  facet normal  0.000000e+000  1.000000e+000  -0.000000e+000
    outer loop
      vertex  3.200000e+001  3.000000e+000  1.680000e+001
      vertex  3.200000e+001  3.000000e+000  4.800000e+000
      vertex  0.000000e+000  3.000000e+000  1.680000e+001
    endloop
  endfacet
  facet normal  0.000000e+000  1.000000e+000  0.000000e+000
    outer loop
      vertex  0.000000e+000  3.000000e+000  1.680000e+001
      vertex  3.200000e+001  3.000000e+000  4.800000e+000
      vertex  0.000000e+000  3.000000e+000  4.800000e+000
    endloop
  endfacet
endsolid CATIA STL
