solid Untitled-54facffc
facet normal 7.88860905221012e-31 1.6653345369377353e-16 -1.0
  outer loop
    vertex 4.6680493193725745 5.429713728769754 -7.049916206369744e-15
    vertex 4.655221155825881 6.18738666070105 -7.049916206369744e-15
    vertex 4.734595550242652 5.751023226294788 -7.049916206369744e-15
  endloop
endfacet
facet normal 7.88860905221012e-31 1.6653345369377353e-16 -1.0
  outer loop
    vertex 4.655221155825881 6.18738666070105 -7.049916206369744e-15
    vertex 4.6680493193725745 5.429713728769754 -7.049916206369744e-15
    vertex 4.468409978360233 5.2002078536351375 -7.049916206369744e-15
  endloop
endfacet
facet normal 7.88860905221012e-31 1.6653345369377353e-16 -1.0
  outer loop
    vertex 4.655221155825881 6.18738666070105 -7.049916206369744e-15
    vertex 4.468409978360233 5.2002078536351375 -7.049916206369744e-15
    vertex 4.55600293571112 6.358814669436811 -7.049916206369744e-15
  endloop
endfacet
facet normal 7.88860905221012e-31 1.6653345369377353e-16 -1.0
  outer loop
    vertex 4.55600293571112 6.358814669436811 -7.049916206369744e-15
    vertex 4.468409978360233 5.2002078536351375 -7.049916206369744e-15
    vertex 4.417097165131222 6.499073692119435 -7.049916206369744e-15
  endloop
endfacet
facet normal 7.88860905221012e-31 1.6653345369377353e-16 -1.0
  outer loop
    vertex 4.417097165131222 6.499073692119435 -7.049916206369744e-15
    vertex 4.468409978360233 5.2002078536351375 -7.049916206369744e-15
    vertex 4.13567655460212 5.062504866850461 -7.049916206369744e-15
  endloop
endfacet
facet normal 7.88860905221012e-31 1.6653345369377353e-16 -1.0
  outer loop
    vertex 4.417097165131222 6.499073692119435 -7.049916206369744e-15
    vertex 4.13567655460212 5.062504866850461 -7.049916206369744e-15
    vertex 4.020222366992274 6.686085238100281 -7.049916206369744e-15
  endloop
endfacet
facet normal 7.88860905221012e-31 1.6653345369377353e-16 -1.0
  outer loop
    vertex 4.020222366992274 6.686085238100281 -7.049916206369744e-15
    vertex 4.13567655460212 5.062504866850461 -7.049916206369744e-15
    vertex 3.6698480754952705 5.0166040343756295 -7.049916206369744e-15
  endloop
endfacet
facet normal 7.88860905221012e-31 1.6653345369377353e-16 -1.0
  outer loop
    vertex 4.020222366992274 6.686085238100281 -7.049916206369744e-15
    vertex 3.6698480754952705 5.0166040343756295 -7.049916206369744e-15
    vertex 3.464595550242683 6.7484222161938385 -7.049916206369744e-15
  endloop
endfacet
facet normal 7.88860905221012e-31 1.6653345369377353e-16 -1.0
  outer loop
    vertex 3.464595550242683 6.7484222161938385 -7.049916206369744e-15
    vertex 3.6698480754952705 5.0166040343756295 -7.049916206369744e-15
    vertex 3.246514742161781 5.016604034375654 -7.049916206369744e-15
  endloop
endfacet
facet normal 7.88860905221012e-31 1.6653345369377353e-16 -1.0
  outer loop
    vertex 3.464595550242683 6.7484222161938385 -7.049916206369744e-15
    vertex 3.246514742161781 5.016604034375654 -7.049916206369744e-15
    vertex 3.246514742161878 6.7484222161938385 -7.049916206369744e-15
  endloop
endfacet
facet normal -0.9573290900794159 -0.28900002298913047 -4.81281719459606e-17
  outer loop
    vertex 5.367391147906832 6.130260456817228 0.499999999999992
    vertex 5.4273228229701065 5.690088882860422 -7.049916206369744e-15
    vertex 5.4273228229701065 5.690088882860422 0.499999999999992
  endloop
endfacet
facet normal -0.9996715534426683 -0.02562782155241562 -4.267889633772287e-18
  outer loop
    vertex 5.4273228229701065 5.690088882860422 -7.049916206369744e-15
    vertex 5.367391147906832 6.130260456817228 0.499999999999992
    vertex 5.367391147906832 6.130260456817228 -7.049916206369744e-15
  endloop
endfacet
facet normal -4.024558464266192e-15 -1.0 -1.6653345369377353e-16
  outer loop
    vertex 2.0000000000000604 4.900799999999999 5.8000000000000105
    vertex 6.000000000000054 4.9007999999999825 10.95620000000001
    vertex 2.0000000000000604 4.9007999999999985 10.95620000000001
  endloop
endfacet
facet normal -4.024558464266192e-15 -1.0 -1.6653345369377353e-16
  outer loop
    vertex 6.000000000000054 4.9007999999999825 10.95620000000001
    vertex 2.0000000000000604 4.900799999999999 5.8000000000000105
    vertex 6.000000000000054 4.9007999999999825 5.8000000000000105
  endloop
endfacet
facet normal -0.8043155904410727 0.5942023485088468 9.895456929012888e-17
  outer loop
    vertex 5.222571925519136 4.982328613001855 0.499999999999992
    vertex 5.063320297717428 4.814558579830128 -7.049916206369744e-15
    vertex 5.063320297717428 4.814558579830128 0.499999999999992
  endloop
endfacet
facet normal -0.6403832982577965 0.7680554871312788 1.2790693290042498e-16
  outer loop
    vertex 5.063320297717428 4.814558579830128 -7.049916206369744e-15
    vertex 5.222571925519136 4.982328613001855 0.499999999999992
    vertex 5.222571925519136 4.982328613001855 -7.049916206369744e-15
  endloop
endfacet
facet normal -1.0 6.915764257560855e-14 1.0728200162214636e-29
  outer loop
    vertex 3.246514742161878 6.7484222161938385 0.499999999999992
    vertex 3.246514742161781 5.016604034375654 -7.049916206369744e-15
    vertex 3.246514742161781 5.016604034375654 0.499999999999992
  endloop
endfacet
facet normal -1.0 6.915764257560855e-14 1.0728200162214636e-29
  outer loop
    vertex 3.246514742161781 5.016604034375654 -7.049916206369744e-15
    vertex 3.246514742161878 6.7484222161938385 0.499999999999992
    vertex 3.246514742161878 6.7484222161938385 -7.049916206369744e-15
  endloop
endfacet
facet normal 1.0 -2.778933239678295e-14 -3.838992594659522e-30
  outer loop
    vertex 2.5794440350913064 9.259558579830221 -5.639932965095795e-15
    vertex 2.579444035091197 4.513093933365555 0.499999999999992
    vertex 2.579444035091197 4.513093933365555 -7.049916206369744e-15
  endloop
endfacet
facet normal 1.0 -2.778933239678295e-14 -3.838992594659522e-30
  outer loop
    vertex 2.579444035091197 4.513093933365555 0.499999999999992
    vertex 2.5794440350913064 9.259558579830221 -5.639932965095795e-15
    vertex 2.5794440350913064 9.259558579830221 0.49999999999999345
  endloop
endfacet
facet normal 0.2725461833034572 0.9621427014568672 1.6022894701986958e-16
  outer loop
    vertex 4.020222366992274 6.686085238100281 -7.049916206369744e-15
    vertex 3.464595550242683 6.7484222161938385 0.499999999999992
    vertex 4.020222366992274 6.686085238100281 0.499999999999992
  endloop
endfacet
facet normal 0.055833434788401214 0.9984400971313849 1.6627367768163628e-16
  outer loop
    vertex 3.464595550242683 6.7484222161938385 0.499999999999992
    vertex 4.020222366992274 6.686085238100281 -7.049916206369744e-15
    vertex 3.464595550242683 6.7484222161938385 -7.049916206369744e-15
  endloop
endfacet
facet normal -0.24534169715981408 0.9694366671602339 1.6144363631957477e-16
  outer loop
    vertex 4.619542304582626 4.588459703493552 -7.049916206369744e-15
    vertex 4.01621171185877 4.513093933365481 0.499999999999992
    vertex 4.619542304582626 4.588459703493552 0.499999999999992
  endloop
endfacet
facet normal -0.06209626960321651 0.9980701645181891 1.6621207152592672e-16
  outer loop
    vertex 4.01621171185877 4.513093933365481 0.499999999999992
    vertex 4.619542304582626 4.588459703493552 -7.049916206369744e-15
    vertex 4.01621171185877 4.513093933365481 -7.049916206369744e-15
  endloop
endfacet
facet normal -0.06209626960321651 0.9980701645181891 1.6621207152592672e-16
  outer loop
    vertex 4.01621171185877 4.513093933365481 -7.049916206369744e-15
    vertex 2.579444035091197 4.513093933365555 0.499999999999992
    vertex 4.01621171185877 4.513093933365481 0.499999999999992
  endloop
endfacet
facet normal 5.112973536622266e-14 1.0 1.6653345369377353e-16
  outer loop
    vertex 2.579444035091197 4.513093933365555 0.499999999999992
    vertex 4.01621171185877 4.513093933365481 -7.049916206369744e-15
    vertex 2.579444035091197 4.513093933365555 -7.049916206369744e-15
  endloop
endfacet
facet normal -0.8161639175536689 -0.5778204389630467 -9.622643331536909e-17
  outer loop
    vertex 5.187595511016913 6.50147845685355 0.499999999999992
    vertex 5.367391147906832 6.130260456817228 -7.049916206369744e-15
    vertex 5.367391147906832 6.130260456817228 0.499999999999992
  endloop
endfacet
facet normal -0.9573290900794159 -0.28900002298913047 -4.81281719459606e-17
  outer loop
    vertex 5.367391147906832 6.130260456817228 -7.049916206369744e-15
    vertex 5.187595511016913 6.50147845685355 0.499999999999992
    vertex 5.187595511016913 6.50147845685355 -7.049916206369744e-15
  endloop
endfacet
facet normal 4.024558464266192e-15 1.0 1.6653345369377353e-16
  outer loop
    vertex 8.000000000000103 12.800799999999983 4.800000000000011
    vertex 1.4099832412739488e-13 12.800800000000017 5.800000000000012
    vertex 8.000000000000103 12.800799999999983 5.800000000000012
  endloop
endfacet
facet normal 4.024558464266192e-15 1.0 1.6653345369377353e-16
  outer loop
    vertex 1.4099832412739488e-13 12.800800000000017 5.800000000000012
    vertex 8.000000000000103 12.800799999999983 4.800000000000011
    vertex 1.4099832412739488e-13 12.800800000000017 4.800000000000011
  endloop
endfacet
facet normal -2.8457925813643456e-15 -0.7071067811865483 -0.7071067811865467
  outer loop
    vertex 1.0000000000000024 0.9999999999999943 -1.4099832412739487e-15
    vertex 8.000000000000053 -3.242961454930082e-14 0.9999999999999968
    vertex 0.0 -3.524958103184872e-16 0.9999999999999968
  endloop
endfacet
facet normal -2.8457925813643456e-15 -0.7071067811865483 -0.7071067811865467
  outer loop
    vertex 8.000000000000053 -3.242961454930082e-14 0.9999999999999968
    vertex 1.0000000000000024 0.9999999999999943 -1.4099832412739487e-15
    vertex 7.0000000000000595 0.9999999999999699 -1.4099832412739487e-15
  endloop
endfacet
facet normal 5.434541705540143e-15 1.0 2.6186782211267148e-15
  outer loop
    vertex 6.000000000000069 8.900799999999975 1.9999999999999962
    vertex 2.000000000000077 8.900799999999993 4.8000000000000105
    vertex 6.000000000000069 8.900799999999975 4.8000000000000105
  endloop
endfacet
facet normal 5.434541705540143e-15 1.0 2.6186782211267148e-15
  outer loop
    vertex 2.000000000000077 8.900799999999993 4.8000000000000105
    vertex 6.000000000000069 8.900799999999975 1.9999999999999962
    vertex 2.000000000000077 8.900800000000004 1.9999999999999962
  endloop
endfacet
facet normal 3.965589146725189e-15 0.7071067811865487 -0.7071067811865465
  outer loop
    vertex 7.000000000000106 12.800799999999978 0.0
    vertex 1.4522827385121672e-13 13.800800000000015 0.9999999999999981
    vertex 8.000000000000108 13.800799999999969 0.9999999999999981
  endloop
endfacet
facet normal 3.965589146725189e-15 0.7071067811865487 -0.7071067811865465
  outer loop
    vertex 1.4522827385121672e-13 13.800800000000015 0.9999999999999981
    vertex 7.000000000000106 12.800799999999978 0.0
    vertex 1.0000000000001392 12.800800000000011 0.0
  endloop
endfacet
facet normal -4.024558464266192e-15 -1.0 -1.6653345369377353e-16
  outer loop
    vertex 4.934941344458821e-14 0.9999999999999974 4.80000000000001
    vertex 8.000000000000057 0.999999999999965 5.8000000000000105
    vertex 4.934941344458821e-14 0.9999999999999971 5.8000000000000105
  endloop
endfacet
facet normal -4.024558464266192e-15 -1.0 -1.6653345369377353e-16
  outer loop
    vertex 8.000000000000057 0.999999999999965 5.8000000000000105
    vertex 4.934941344458821e-14 0.9999999999999974 4.80000000000001
    vertex 8.000000000000057 0.9999999999999654 4.80000000000001
  endloop
endfacet
facet normal -4.024558464266192e-15 -1.0 -1.6653345369377353e-16
  outer loop
    vertex 2.5794440350913064 9.259558579830221 -5.639932965095795e-15
    vertex 3.2465147421620233 9.259558579830221 0.49999999999999345
    vertex 2.5794440350913064 9.259558579830221 0.49999999999999345
  endloop
endfacet
facet normal -4.024558464266192e-15 -1.0 -1.6653345369377353e-16
  outer loop
    vertex 3.2465147421620233 9.259558579830221 0.49999999999999345
    vertex 2.5794440350913064 9.259558579830221 -5.639932965095795e-15
    vertex 3.2465147421620233 9.259558579830221 -5.639932965095795e-15
  endloop
endfacet
facet normal 0.24285259405644768 -0.9700632028687897 -1.6154797547498301e-16
  outer loop
    vertex 4.13567655460212 5.062504866850461 -7.049916206369744e-15
    vertex 4.468409978360233 5.2002078536351375 0.499999999999992
    vertex 4.13567655460212 5.062504866850461 0.499999999999992
  endloop
endfacet
facet normal 0.583991177059194 -0.8117600046300736 -1.3518519714151928e-16
  outer loop
    vertex 4.468409978360233 5.2002078536351375 0.499999999999992
    vertex 4.13567655460212 5.062504866850461 -7.049916206369744e-15
    vertex 4.468409978360233 5.2002078536351375 -7.049916206369744e-15
  endloop
endfacet
facet normal 0.5772024999382326 0.8166010495125847 1.3599139306529135e-16
  outer loop
    vertex 4.417097165131222 6.499073692119435 -7.049916206369744e-15
    vertex 4.55600293571112 6.358814669436811 0.499999999999992
    vertex 4.55600293571112 6.358814669436811 -7.049916206369744e-15
  endloop
endfacet
facet normal 0.7945023869848079 0.6072610287804107 1.0112927641643642e-16
  outer loop
    vertex 4.55600293571112 6.358814669436811 0.499999999999992
    vertex 4.417097165131222 6.499073692119435 -7.049916206369744e-15
    vertex 4.417097165131222 6.499073692119435 0.499999999999992
  endloop
endfacet
facet normal -0.922070830796735 0.38702116607986564 6.445197143987082e-17
  outer loop
    vertex 5.336322656548985 5.184173087331879 0.499999999999992
    vertex 5.222571925519136 4.982328613001855 -7.049916206369744e-15
    vertex 5.222571925519136 4.982328613001855 0.499999999999992
  endloop
endfacet
facet normal -0.8043155904410727 0.5942023485088468 9.895456929012888e-17
  outer loop
    vertex 5.222571925519136 4.982328613001855 -7.049916206369744e-15
    vertex 5.336322656548985 5.184173087331879 0.499999999999992
    vertex 5.336322656548985 5.184173087331879 -7.049916206369744e-15
  endloop
endfacet
facet normal 0.055833434788401214 0.9984400971313849 1.6627367768163628e-16
  outer loop
    vertex 3.464595550242683 6.7484222161938385 -7.049916206369744e-15
    vertex 3.246514742161878 6.7484222161938385 0.499999999999992
    vertex 3.464595550242683 6.7484222161938385 0.499999999999992
  endloop
endfacet
facet normal 4.024558464266192e-15 1.0 1.6653345369377353e-16
  outer loop
    vertex 3.246514742161878 6.7484222161938385 0.499999999999992
    vertex 3.464595550242683 6.7484222161938385 -7.049916206369744e-15
    vertex 3.246514742161878 6.7484222161938385 -7.049916206369744e-15
  endloop
endfacet
facet normal 7.88860905221012e-31 1.6653345369377353e-16 -1.0
  outer loop
    vertex 5.404572839476247 5.420092883668675 0.499999999999992
    vertex 5.367391147906832 6.130260456817228 0.499999999999992
    vertex 5.4273228229701065 5.690088882860422 0.499999999999992
  endloop
endfacet
facet normal 7.88860905221012e-31 1.6653345369377353e-16 -1.0
  outer loop
    vertex 5.367391147906832 6.130260456817228 0.499999999999992
    vertex 5.404572839476247 5.420092883668675 0.499999999999992
    vertex 5.336322656548985 5.184173087331879 0.499999999999992
  endloop
endfacet
facet normal 7.88860905221012e-31 1.6653345369377353e-16 -1.0
  outer loop
    vertex 5.367391147906832 6.130260456817228 0.499999999999992
    vertex 5.336322656548985 5.184173087331879 0.499999999999992
    vertex 5.187595511016913 6.50147845685355 0.499999999999992
  endloop
endfacet
facet normal 7.88860905221012e-31 1.6653345369377353e-16 -1.0
  outer loop
    vertex 5.187595511016913 6.50147845685355 0.499999999999992
    vertex 5.336322656548985 5.184173087331879 0.499999999999992
    vertex 5.222571925519136 4.982328613001855 0.499999999999992
  endloop
endfacet
facet normal 7.88860905221012e-31 1.6653345369377353e-16 -1.0
  outer loop
    vertex 5.187595511016913 6.50147845685355 0.499999999999992
    vertex 5.222571925519136 4.982328613001855 0.499999999999992
    vertex 5.063320297717428 4.814558579830128 0.499999999999992
  endloop
endfacet
facet normal 7.88860905221012e-31 1.6653345369377353e-16 -1.0
  outer loop
    vertex 5.187595511016913 6.50147845685355 0.499999999999992
    vertex 5.063320297717428 4.814558579830128 0.499999999999992
    vertex 4.88793499474999 6.803744094135766 0.499999999999992
  endloop
endfacet
facet normal 7.88860905221012e-31 1.6653345369377353e-16 -1.0
  outer loop
    vertex 4.88793499474999 6.803744094135766 0.499999999999992
    vertex 5.063320297717428 4.814558579830128 0.499999999999992
    vertex 4.86137487144603 4.682667356577675 0.499999999999992
  endloop
endfacet
facet normal 7.88860905221012e-31 1.6653345369377353e-16 -1.0
  outer loop
    vertex 4.88793499474999 6.803744094135766 0.499999999999992
    vertex 4.86137487144603 4.682667356577675 0.499999999999992
    vertex 4.734595550242652 5.751023226294788 0.499999999999992
  endloop
endfacet
facet normal 7.88860905221012e-31 1.6653345369377353e-16 -1.0
  outer loop
    vertex 4.88793499474999 6.803744094135766 0.499999999999992
    vertex 4.734595550242652 5.751023226294788 0.499999999999992
    vertex 4.655221155825881 6.18738666070105 0.499999999999992
  endloop
endfacet
facet normal 7.88860905221012e-31 1.6653345369377353e-16 -1.0
  outer loop
    vertex 4.88793499474999 6.803744094135766 0.499999999999992
    vertex 4.655221155825881 6.18738666070105 0.499999999999992
    vertex 4.468408681555835 7.037058579830161 0.499999999999992
  endloop
endfacet
facet normal 7.88860905221012e-31 1.6653345369377353e-16 -1.0
  outer loop
    vertex 4.468408681555835 7.037058579830161 0.499999999999992
    vertex 4.655221155825881 6.18738666070105 0.499999999999992
    vertex 4.55600293571112 6.358814669436811 0.499999999999992
  endloop
endfacet
facet normal 7.88860905221012e-31 1.6653345369377353e-16 -1.0
  outer loop
    vertex 4.468408681555835 7.037058579830161 0.499999999999992
    vertex 4.55600293571112 6.358814669436811 0.499999999999992
    vertex 4.417097165131222 6.499073692119435 0.499999999999992
  endloop
endfacet
facet normal 7.88860905221012e-31 1.6653345369377353e-16 -1.0
  outer loop
    vertex 4.468408681555835 7.037058579830161 0.499999999999992
    vertex 5.225277368424579 9.259558579830099 0.49999999999999345
    vertex 6.052701610848926 9.259558579830074 0.49999999999999345
  endloop
endfacet
facet normal 7.88860905221012e-31 1.6653345369377353e-16 -1.0
  outer loop
    vertex 5.225277368424579 9.259558579830099 0.49999999999999345
    vertex 4.468408681555835 7.037058579830161 0.499999999999992
    vertex 3.8751006007477384 7.251932317203984 0.49999999999999345
  endloop
endfacet
facet normal 7.88860905221012e-31 1.6653345369377353e-16 -1.0
  outer loop
    vertex 3.8751006007477384 7.251932317203984 0.49999999999999345
    vertex 4.468408681555835 7.037058579830161 0.499999999999992
    vertex 4.417097165131222 6.499073692119435 0.499999999999992
  endloop
endfacet
facet normal 7.88860905221012e-31 1.6653345369377353e-16 -1.0
  outer loop
    vertex 3.8751006007477384 7.251932317203984 0.49999999999999345
    vertex 4.417097165131222 6.499073692119435 0.499999999999992
    vertex 4.020222366992274 6.686085238100281 0.499999999999992
  endloop
endfacet
facet normal 7.88860905221012e-31 1.6653345369377353e-16 -1.0
  outer loop
    vertex 3.8751006007477384 7.251932317203984 0.49999999999999345
    vertex 4.020222366992274 6.686085238100281 0.499999999999992
    vertex 3.464595550242683 6.7484222161938385 0.499999999999992
  endloop
endfacet
facet normal 7.88860905221012e-31 1.6653345369377353e-16 -1.0
  outer loop
    vertex 3.8751006007477384 7.251932317203984 0.49999999999999345
    vertex 3.464595550242683 6.7484222161938385 0.499999999999992
    vertex 3.2465147421618803 7.251932317203986 0.49999999999999345
  endloop
endfacet
facet normal 7.88860905221012e-31 1.6653345369377353e-16 -1.0
  outer loop
    vertex 3.2465147421618803 7.251932317203986 0.49999999999999345
    vertex 3.464595550242683 6.7484222161938385 0.499999999999992
    vertex 3.246514742161878 6.7484222161938385 0.499999999999992
  endloop
endfacet
facet normal 7.88860905221012e-31 1.6653345369377353e-16 -1.0
  outer loop
    vertex 3.2465147421618803 7.251932317203986 0.49999999999999345
    vertex 3.246514742161878 6.7484222161938385 0.499999999999992
    vertex 3.246514742161781 5.016604034375654 0.499999999999992
  endloop
endfacet
facet normal 7.88860905221012e-31 1.6653345369377353e-16 -1.0
  outer loop
    vertex 4.619542304582626 4.588459703493552 0.499999999999992
    vertex 4.734595550242652 5.751023226294788 0.499999999999992
    vertex 4.86137487144603 4.682667356577675 0.499999999999992
  endloop
endfacet
facet normal 7.88860905221012e-31 1.6653345369377353e-16 -1.0
  outer loop
    vertex 4.734595550242652 5.751023226294788 0.499999999999992
    vertex 4.619542304582626 4.588459703493552 0.499999999999992
    vertex 4.6680493193725745 5.429713728769754 0.499999999999992
  endloop
endfacet
facet normal 7.88860905221012e-31 1.6653345369377353e-16 -1.0
  outer loop
    vertex 4.6680493193725745 5.429713728769754 0.499999999999992
    vertex 4.619542304582626 4.588459703493552 0.499999999999992
    vertex 4.468409978360233 5.2002078536351375 0.499999999999992
  endloop
endfacet
facet normal 7.88860905221012e-31 1.6653345369377353e-16 -1.0
  outer loop
    vertex 4.468409978360233 5.2002078536351375 0.499999999999992
    vertex 4.619542304582626 4.588459703493552 0.499999999999992
    vertex 4.01621171185877 4.513093933365481 0.499999999999992
  endloop
endfacet
facet normal 7.88860905221012e-31 1.6653345369377353e-16 -1.0
  outer loop
    vertex 4.468409978360233 5.2002078536351375 0.499999999999992
    vertex 4.01621171185877 4.513093933365481 0.499999999999992
    vertex 4.13567655460212 5.062504866850461 0.499999999999992
  endloop
endfacet
facet normal 7.88860905221012e-31 1.6653345369377353e-16 -1.0
  outer loop
    vertex 4.13567655460212 5.062504866850461 0.499999999999992
    vertex 4.01621171185877 4.513093933365481 0.499999999999992
    vertex 3.6698480754952705 5.0166040343756295 0.499999999999992
  endloop
endfacet
facet normal 7.88860905221012e-31 1.6653345369377353e-16 -1.0
  outer loop
    vertex 3.6698480754952705 5.0166040343756295 0.499999999999992
    vertex 4.01621171185877 4.513093933365481 0.499999999999992
    vertex 2.579444035091197 4.513093933365555 0.499999999999992
  endloop
endfacet
facet normal 7.88860905221012e-31 1.6653345369377353e-16 -1.0
  outer loop
    vertex 3.6698480754952705 5.0166040343756295 0.499999999999992
    vertex 2.579444035091197 4.513093933365555 0.499999999999992
    vertex 3.246514742161781 5.016604034375654 0.499999999999992
  endloop
endfacet
facet normal 7.88860905221012e-31 1.6653345369377353e-16 -1.0
  outer loop
    vertex 3.246514742161781 5.016604034375654 0.499999999999992
    vertex 2.579444035091197 4.513093933365555 0.499999999999992
    vertex 2.5794440350913064 9.259558579830221 0.49999999999999345
  endloop
endfacet
facet normal 7.88860905221012e-31 1.6653345369377353e-16 -1.0
  outer loop
    vertex 3.2465147421618803 7.251932317203986 0.49999999999999345
    vertex 2.5794440350913064 9.259558579830221 0.49999999999999345
    vertex 3.2465147421620233 9.259558579830221 0.49999999999999345
  endloop
endfacet
facet normal 7.88860905221012e-31 1.6653345369377353e-16 -1.0
  outer loop
    vertex 2.5794440350913064 9.259558579830221 0.49999999999999345
    vertex 3.2465147421618803 7.251932317203986 0.49999999999999345
    vertex 3.246514742161781 5.016604034375654 0.499999999999992
  endloop
endfacet
facet normal -4.024558464266192e-15 -1.0 -1.6653345369377353e-16
  outer loop
    vertex 3.2465147421618803 7.251932317203986 -5.639932965095795e-15
    vertex 3.8751006007477384 7.251932317203984 0.49999999999999345
    vertex 3.2465147421618803 7.251932317203986 0.49999999999999345
  endloop
endfacet
facet normal -4.024558464266192e-15 -1.0 -1.6653345369377353e-16
  outer loop
    vertex 3.8751006007477384 7.251932317203984 0.49999999999999345
    vertex 3.2465147421618803 7.251932317203986 -5.639932965095795e-15
    vertex 3.8751006007477384 7.251932317203984 -5.639932965095795e-15
  endloop
endfacet
facet normal -0.9833323769956116 0.1818170408739529 3.0278619757120584e-17
  outer loop
    vertex 5.404572839476247 5.420092883668675 0.499999999999992
    vertex 5.336322656548985 5.184173087331879 -7.049916206369744e-15
    vertex 5.336322656548985 5.184173087331879 0.499999999999992
  endloop
endfacet
facet normal -0.922070830796735 0.38702116607986564 6.445197143987082e-17
  outer loop
    vertex 5.336322656548985 5.184173087331879 -7.049916206369744e-15
    vertex 5.404572839476247 5.420092883668675 0.499999999999992
    vertex 5.404572839476247 5.420092883668675 -7.049916206369744e-15
  endloop
endfacet
facet normal -3.128957041784798e-14 -1.0 -1.6653345369377353e-16
  outer loop
    vertex 5.225277368424579 9.259558579830099 -5.639932965095795e-15
    vertex 6.052701610848926 9.259558579830074 0.49999999999999345
    vertex 5.225277368424579 9.259558579830099 0.49999999999999345
  endloop
endfacet
facet normal -3.128957041784798e-14 -1.0 -1.6653345369377353e-16
  outer loop
    vertex 6.052701610848926 9.259558579830074 0.49999999999999345
    vertex 5.225277368424579 9.259558579830099 -5.639932965095795e-15
    vertex 6.052701610848926 9.259558579830074 -5.639932965095795e-15
  endloop
endfacet
facet normal -5.731526364625402e-14 -1.0 -1.6653345369377353e-16
  outer loop
    vertex 3.246514742161781 5.016604034375654 -7.049916206369744e-15
    vertex 3.6698480754952705 5.0166040343756295 0.499999999999992
    vertex 3.246514742161781 5.016604034375654 0.499999999999992
  endloop
endfacet
facet normal 0.04908968654203415 -0.9987943745712653 -1.6633267672726525e-16
  outer loop
    vertex 3.6698480754952705 5.0166040343756295 0.499999999999992
    vertex 3.246514742161781 5.016604034375654 -7.049916206369744e-15
    vertex 3.6698480754952705 5.0166040343756295 -7.049916206369744e-15
  endloop
endfacet
facet normal 0.9999262523518109 -0.012144540240893108 -2.0224722298381527e-18
  outer loop
    vertex 4.734595550242652 5.751023226294788 -7.049916206369744e-15
    vertex 4.6680493193725745 5.429713728769754 0.499999999999992
    vertex 4.6680493193725745 5.429713728769754 -7.049916206369744e-15
  endloop
endfacet
facet normal 0.8960221026841616 -0.4440094497884634 -7.394242714594422e-17
  outer loop
    vertex 4.6680493193725745 5.429713728769754 0.499999999999992
    vertex 4.734595550242652 5.751023226294788 -7.049916206369744e-15
    vertex 4.734595550242652 5.751023226294788 0.499999999999992
  endloop
endfacet
facet normal 0.9385817368974851 0.34505698538429896 5.746353149720998e-17
  outer loop
    vertex 4.655221155825881 6.18738666070105 -7.049916206369744e-15
    vertex 4.734595550242652 5.751023226294788 0.499999999999992
    vertex 4.734595550242652 5.751023226294788 -7.049916206369744e-15
  endloop
endfacet
facet normal 0.9999262523518109 -0.012144540240893108 -2.0224722298381527e-18
  outer loop
    vertex 4.734595550242652 5.751023226294788 0.499999999999992
    vertex 4.655221155825881 6.18738666070105 -7.049916206369744e-15
    vertex 4.655221155825881 6.18738666070105 0.499999999999992
  endloop
endfacet
facet normal -0.8142888519345427 0.5804598742506881 9.666598758961992e-17
  outer loop
    vertex 6.052701610848926 9.259558579830074 0.49999999999999345
    vertex 4.468408681555835 7.037058579830161 -7.049916206369744e-15
    vertex 4.468408681555835 7.037058579830161 0.499999999999992
  endloop
endfacet
facet normal -0.8142888519345427 0.5804598742506881 9.666598758961992e-17
  outer loop
    vertex 4.468408681555835 7.037058579830161 -7.049916206369744e-15
    vertex 6.052701610848926 9.259558579830074 0.49999999999999345
    vertex 6.052701610848926 9.259558579830074 -5.639932965095795e-15
  endloop
endfacet
facet normal 0.04908968654203415 -0.9987943745712653 -1.6633267672726525e-16
  outer loop
    vertex 3.6698480754952705 5.0166040343756295 -7.049916206369744e-15
    vertex 4.13567655460212 5.062504866850461 0.499999999999992
    vertex 3.6698480754952705 5.0166040343756295 0.499999999999992
  endloop
endfacet
facet normal 0.24285259405644768 -0.9700632028687897 -1.6154797547498301e-16
  outer loop
    vertex 4.13567655460212 5.062504866850461 0.499999999999992
    vertex 3.6698480754952705 5.0166040343756295 -7.049916206369744e-15
    vertex 4.13567655460212 5.062504866850461 -7.049916206369744e-15
  endloop
endfacet
facet normal 0.8960221026841616 -0.4440094497884634 -7.394242714594422e-17
  outer loop
    vertex 4.6680493193725745 5.429713728769754 -7.049916206369744e-15
    vertex 4.468409978360233 5.2002078536351375 0.499999999999992
    vertex 4.468409978360233 5.2002078536351375 -7.049916206369744e-15
  endloop
endfacet
facet normal 0.583991177059194 -0.8117600046300736 -1.3518519714151928e-16
  outer loop
    vertex 4.468409978360233 5.2002078536351375 0.499999999999992
    vertex 4.6680493193725745 5.429713728769754 -7.049916206369744e-15
    vertex 4.6680493193725745 5.429713728769754 0.499999999999992
  endloop
endfacet
facet normal 0.7945023869848079 0.6072610287804107 1.0112927641643642e-16
  outer loop
    vertex 4.55600293571112 6.358814669436811 -7.049916206369744e-15
    vertex 4.655221155825881 6.18738666070105 0.499999999999992
    vertex 4.655221155825881 6.18738666070105 -7.049916206369744e-15
  endloop
endfacet
facet normal 0.9385817368974851 0.34505698538429896 5.746353149720998e-17
  outer loop
    vertex 4.655221155825881 6.18738666070105 0.499999999999992
    vertex 4.55600293571112 6.358814669436811 -7.049916206369744e-15
    vertex 4.55600293571112 6.358814669436811 0.499999999999992
  endloop
endfacet
facet normal 0.5772024999382326 0.8166010495125847 1.3599139306529135e-16
  outer loop
    vertex 4.417097165131222 6.499073692119435 -7.049916206369744e-15
    vertex 4.020222366992274 6.686085238100281 0.499999999999992
    vertex 4.417097165131222 6.499073692119435 0.499999999999992
  endloop
endfacet
facet normal 0.2725461833034572 0.9621427014568672 1.6022894701986958e-16
  outer loop
    vertex 4.020222366992274 6.686085238100281 0.499999999999992
    vertex 4.417097165131222 6.499073692119435 -7.049916206369744e-15
    vertex 4.020222366992274 6.686085238100281 -7.049916206369744e-15
  endloop
endfacet
facet normal -0.604098992449079 -0.7969092842488458 -1.3271205538659385e-16
  outer loop
    vertex 4.88793499474999 6.803744094135766 0.499999999999992
    vertex 5.187595511016913 6.50147845685355 -7.049916206369744e-15
    vertex 5.187595511016913 6.50147845685355 0.499999999999992
  endloop
endfacet
facet normal -0.8161639175536689 -0.5778204389630467 -9.622643331536909e-17
  outer loop
    vertex 5.187595511016913 6.50147845685355 -7.049916206369744e-15
    vertex 4.88793499474999 6.803744094135766 0.499999999999992
    vertex 4.88793499474999 6.803744094135766 -7.049916206369744e-15
  endloop
endfacet
facet normal 0.8298002358684032 -0.5580605420138056 -9.29357494317776e-17
  outer loop
    vertex 5.225277368424579 9.259558579830099 -5.639932965095795e-15
    vertex 3.8751006007477384 7.251932317203984 0.49999999999999345
    vertex 3.8751006007477384 7.251932317203984 -5.639932965095795e-15
  endloop
endfacet
facet normal 0.8298002358684032 -0.5580605420138056 -9.29357494317776e-17
  outer loop
    vertex 3.8751006007477384 7.251932317203984 0.49999999999999345
    vertex 5.225277368424579 9.259558579830099 -5.639932965095795e-15
    vertex 5.225277368424579 9.259558579830099 0.49999999999999345
  endloop
endfacet
facet normal -0.9996715534426683 -0.02562782155241562 -4.267889633772287e-18
  outer loop
    vertex 5.4273228229701065 5.690088882860422 0.499999999999992
    vertex 5.404572839476247 5.420092883668675 -7.049916206369744e-15
    vertex 5.404572839476247 5.420092883668675 0.499999999999992
  endloop
endfacet
facet normal -0.9833323769956116 0.1818170408739529 3.0278619757120584e-17
  outer loop
    vertex 5.404572839476247 5.420092883668675 -7.049916206369744e-15
    vertex 5.4273228229701065 5.690088882860422 0.499999999999992
    vertex 5.4273228229701065 5.690088882860422 -7.049916206369744e-15
  endloop
endfacet
facet normal -1.0 7.144666470092842e-14 1.1109398922325614e-29
  outer loop
    vertex 3.2465147421620233 9.259558579830221 0.49999999999999345
    vertex 3.2465147421618803 7.251932317203986 -5.639932965095795e-15
    vertex 3.2465147421618803 7.251932317203986 0.49999999999999345
  endloop
endfacet
facet normal -1.0 7.144666470092842e-14 1.1109398922325614e-29
  outer loop
    vertex 3.2465147421618803 7.251932317203986 -5.639932965095795e-15
    vertex 3.2465147421620233 9.259558579830221 0.49999999999999345
    vertex 3.2465147421620233 9.259558579830221 -5.639932965095795e-15
  endloop
endfacet
facet normal -0.45734978916175834 0.8892868886662478 1.4809601689418015e-16
  outer loop
    vertex 4.86137487144603 4.682667356577675 -7.049916206369744e-15
    vertex 4.619542304582626 4.588459703493552 0.499999999999992
    vertex 4.86137487144603 4.682667356577675 0.499999999999992
  endloop
endfacet
facet normal -0.24534169715981408 0.9694366671602339 1.6144363631957477e-16
  outer loop
    vertex 4.619542304582626 4.588459703493552 0.499999999999992
    vertex 4.86137487144603 4.682667356577675 -7.049916206369744e-15
    vertex 4.619542304582626 4.588459703493552 -7.049916206369744e-15
  endloop
endfacet
facet normal -0.486031790679366 -0.8739411298531551 -1.455404346794849e-16
  outer loop
    vertex 4.468408681555835 7.037058579830161 -7.049916206369744e-15
    vertex 4.88793499474999 6.803744094135766 0.499999999999992
    vertex 4.468408681555835 7.037058579830161 0.499999999999992
  endloop
endfacet
facet normal -0.604098992449079 -0.7969092842488458 -1.3271205538659385e-16
  outer loop
    vertex 4.88793499474999 6.803744094135766 0.499999999999992
    vertex 4.468408681555835 7.037058579830161 -7.049916206369744e-15
    vertex 4.88793499474999 6.803744094135766 -7.049916206369744e-15
  endloop
endfacet
facet normal -0.6403832982577965 0.7680554871312788 1.2790693290042498e-16
  outer loop
    vertex 5.063320297717428 4.814558579830128 -7.049916206369744e-15
    vertex 4.86137487144603 4.682667356577675 0.499999999999992
    vertex 5.063320297717428 4.814558579830128 0.499999999999992
  endloop
endfacet
facet normal -0.45734978916175834 0.8892868886662478 1.4809601689418015e-16
  outer loop
    vertex 4.86137487144603 4.682667356577675 0.499999999999992
    vertex 5.063320297717428 4.814558579830128 -7.049916206369744e-15
    vertex 4.86137487144603 4.682667356577675 -7.049916206369744e-15
  endloop
endfacet
facet normal -4.024558464266192e-15 -1.0 -1.6653345369377353e-16
  outer loop
    vertex 0.0 -3.524958103184872e-16 0.9999999999999968
    vertex 8.000000000000053 -3.242961454930082e-14 1.999999999999995
    vertex 0.0 -3.524958103184872e-16 1.999999999999995
  endloop
endfacet
facet normal -4.024558464266192e-15 -1.0 -1.6653345369377353e-16
  outer loop
    vertex 8.000000000000053 -3.242961454930082e-14 1.999999999999995
    vertex 0.0 -3.524958103184872e-16 0.9999999999999968
    vertex 8.000000000000053 -3.242961454930082e-14 0.9999999999999968
  endloop
endfacet
facet normal 5.434541705540143e-15 1.0 -1.0447403243002556e-15
  outer loop
    vertex 6.000000000000069 8.900799999999975 5.800000000000011
    vertex 2.000000000000077 8.900800000000002 10.95620000000001
    vertex 6.000000000000069 8.900799999999975 10.95620000000001
  endloop
endfacet
facet normal 5.434541705540143e-15 1.0 -1.0447403243002556e-15
  outer loop
    vertex 2.000000000000077 8.900800000000002 10.95620000000001
    vertex 6.000000000000069 8.900799999999975 5.800000000000011
    vertex 2.000000000000077 8.900799999999993 5.800000000000011
  endloop
endfacet
facet normal 1.0 -4.024558464266192e-15 1.1863728457425382e-31
  outer loop
    vertex 6.000000000000069 8.900799999999975 5.800000000000011
    vertex 6.000000000000054 4.9007999999999825 10.95620000000001
    vertex 6.000000000000054 4.9007999999999825 5.8000000000000105
  endloop
endfacet
facet normal 1.0 -4.024558464266192e-15 1.1863728457425382e-31
  outer loop
    vertex 6.000000000000054 4.9007999999999825 10.95620000000001
    vertex 6.000000000000069 8.900799999999975 5.800000000000011
    vertex 6.000000000000069 8.900799999999975 10.95620000000001
  endloop
endfacet
facet normal 1.0 -4.024558464266192e-15 1.1863728457425382e-31
  outer loop
    vertex 6.000000000000069 8.900799999999975 1.9999999999999962
    vertex 6.000000000000054 4.900799999999983 4.80000000000001
    vertex 6.000000000000054 4.900799999999984 1.999999999999995
  endloop
endfacet
facet normal 1.0 -4.024558464266192e-15 1.1863728457425382e-31
  outer loop
    vertex 6.000000000000054 4.900799999999983 4.80000000000001
    vertex 6.000000000000069 8.900799999999975 1.9999999999999962
    vertex 6.000000000000069 8.900799999999975 4.8000000000000105
  endloop
endfacet
facet normal -4.024558464266192e-15 -1.0 -1.6653345369377353e-16
  outer loop
    vertex 2.0000000000000604 4.900799999999999 1.999999999999995
    vertex 6.000000000000054 4.900799999999983 4.80000000000001
    vertex 2.0000000000000604 4.900799999999999 4.80000000000001
  endloop
endfacet
facet normal -4.024558464266192e-15 -1.0 -1.6653345369377353e-16
  outer loop
    vertex 6.000000000000054 4.900799999999983 4.80000000000001
    vertex 2.0000000000000604 4.900799999999999 1.999999999999995
    vertex 6.000000000000054 4.900799999999984 1.999999999999995
  endloop
endfacet
facet normal 5.4345417055401495e-15 1.0 1.6653345369377353e-16
  outer loop
    vertex 8.000000000000108 13.800799999999969 0.9999999999999981
    vertex 1.4522827385121672e-13 13.800800000000015 1.9999999999999962
    vertex 8.000000000000108 13.800799999999969 1.9999999999999962
  endloop
endfacet
facet normal 5.4345417055401495e-15 1.0 1.6653345369377353e-16
  outer loop
    vertex 1.4522827385121672e-13 13.800800000000015 1.9999999999999962
    vertex 8.000000000000108 13.800799999999969 0.9999999999999981
    vertex 1.4522827385121672e-13 13.800800000000015 0.9999999999999981
  endloop
endfacet
facet normal -1.0 9.664491429361989e-15 1.4840787859578974e-29
  outer loop
    vertex 2.000000000000077 8.900799999999993 4.8000000000000105
    vertex 2.0000000000000604 4.900799999999999 1.999999999999995
    vertex 2.0000000000000604 4.900799999999999 4.80000000000001
  endloop
endfacet
facet normal -1.0 9.664491429361989e-15 1.4840787859578974e-29
  outer loop
    vertex 2.0000000000000604 4.900799999999999 1.999999999999995
    vertex 2.000000000000077 8.900799999999993 4.8000000000000105
    vertex 2.000000000000077 8.900800000000004 1.9999999999999962
  endloop
endfacet
facet normal -1.0 7.847982615236157e-15 5.180907442228976e-31
  outer loop
    vertex 1.4099832412739488e-13 12.800800000000017 5.800000000000012
    vertex 4.934941344458821e-14 0.9999999999999974 4.80000000000001
    vertex 4.934941344458821e-14 0.9999999999999971 5.8000000000000105
  endloop
endfacet
facet normal -1.0 7.847982615236157e-15 5.180907442228976e-31
  outer loop
    vertex 4.934941344458821e-14 0.9999999999999974 4.80000000000001
    vertex 1.4099832412739488e-13 12.800800000000017 5.800000000000012
    vertex 1.4099832412739488e-13 12.800800000000017 4.800000000000011
  endloop
endfacet
facet normal 1.0 -4.024558464266192e-15 1.1863728457425382e-31
  outer loop
    vertex 8.000000000000103 12.800799999999983 4.800000000000011
    vertex 8.000000000000057 0.999999999999965 5.8000000000000105
    vertex 8.000000000000057 0.9999999999999654 4.80000000000001
  endloop
endfacet
facet normal 1.0 -4.024558464266192e-15 1.1863728457425382e-31
  outer loop
    vertex 8.000000000000057 0.999999999999965 5.8000000000000105
    vertex 8.000000000000103 12.800799999999983 4.800000000000011
    vertex 8.000000000000103 12.800799999999983 5.800000000000012
  endloop
endfacet
facet normal 1.0 -4.024558464266192e-15 1.1863728457425382e-31
  outer loop
    vertex 8.000000000000108 13.800799999999969 0.9999999999999981
    vertex 8.000000000000053 -3.242961454930082e-14 1.999999999999995
    vertex 8.000000000000053 -3.242961454930082e-14 0.9999999999999968
  endloop
endfacet
facet normal 1.0 -4.024558464266192e-15 1.1863728457425382e-31
  outer loop
    vertex 8.000000000000053 -3.242961454930082e-14 1.999999999999995
    vertex 8.000000000000108 13.800799999999969 0.9999999999999981
    vertex 8.000000000000108 13.800799999999969 1.9999999999999962
  endloop
endfacet
facet normal -1.0 1.0563232123875244e-14 9.70270622536947e-31
  outer loop
    vertex 1.4522827385121672e-13 13.800800000000015 1.9999999999999962
    vertex 0.0 -3.524958103184872e-16 0.9999999999999968
    vertex 0.0 -3.524958103184872e-16 1.999999999999995
  endloop
endfacet
facet normal -1.0 1.0563232123875244e-14 9.70270622536947e-31
  outer loop
    vertex 0.0 -3.524958103184872e-16 0.9999999999999968
    vertex 1.4522827385121672e-13 13.800800000000015 1.9999999999999962
    vertex 1.4522827385121672e-13 13.800800000000015 0.9999999999999981
  endloop
endfacet
facet normal -7.88860905221012e-31 -1.6653345369377353e-16 1.0
  outer loop
    vertex 8.000000000000108 13.800799999999969 1.9999999999999962
    vertex 6.000000000000069 8.900799999999975 1.9999999999999962
    vertex 8.000000000000053 -3.242961454930082e-14 1.999999999999995
  endloop
endfacet
facet normal -7.88860905221012e-31 -1.6653345369377353e-16 1.0
  outer loop
    vertex 6.000000000000069 8.900799999999975 1.9999999999999962
    vertex 8.000000000000108 13.800799999999969 1.9999999999999962
    vertex 1.4522827385121672e-13 13.800800000000015 1.9999999999999962
  endloop
endfacet
facet normal -7.88860905221012e-31 -1.6653345369377353e-16 1.0
  outer loop
    vertex 6.000000000000069 8.900799999999975 1.9999999999999962
    vertex 1.4522827385121672e-13 13.800800000000015 1.9999999999999962
    vertex 2.000000000000077 8.900800000000004 1.9999999999999962
  endloop
endfacet
facet normal -7.88860905221012e-31 -1.6653345369377353e-16 1.0
  outer loop
    vertex 2.000000000000077 8.900800000000004 1.9999999999999962
    vertex 1.4522827385121672e-13 13.800800000000015 1.9999999999999962
    vertex 2.0000000000000604 4.900799999999999 1.999999999999995
  endloop
endfacet
facet normal -7.88860905221012e-31 -1.6653345369377353e-16 1.0
  outer loop
    vertex 8.000000000000053 -3.242961454930082e-14 1.999999999999995
    vertex 6.000000000000054 4.900799999999984 1.999999999999995
    vertex 0.0 -3.524958103184872e-16 1.999999999999995
  endloop
endfacet
facet normal -7.88860905221012e-31 -1.6653345369377353e-16 1.0
  outer loop
    vertex 6.000000000000054 4.900799999999984 1.999999999999995
    vertex 8.000000000000053 -3.242961454930082e-14 1.999999999999995
    vertex 6.000000000000069 8.900799999999975 1.9999999999999962
  endloop
endfacet
facet normal -7.88860905221012e-31 -1.6653345369377353e-16 1.0
  outer loop
    vertex 0.0 -3.524958103184872e-16 1.999999999999995
    vertex 6.000000000000054 4.900799999999984 1.999999999999995
    vertex 2.0000000000000604 4.900799999999999 1.999999999999995
  endloop
endfacet
facet normal -7.88860905221012e-31 -1.6653345369377353e-16 1.0
  outer loop
    vertex 0.0 -3.524958103184872e-16 1.999999999999995
    vertex 2.0000000000000604 4.900799999999999 1.999999999999995
    vertex 1.4522827385121672e-13 13.800800000000015 1.9999999999999962
  endloop
endfacet
facet normal 7.88860905221012e-31 1.6653345369377353e-16 -1.0
  outer loop
    vertex 8.000000000000057 0.9999999999999654 4.80000000000001
    vertex 6.000000000000054 4.900799999999983 4.80000000000001
    vertex 8.000000000000103 12.800799999999983 4.800000000000011
  endloop
endfacet
facet normal 7.88860905221012e-31 1.6653345369377353e-16 -1.0
  outer loop
    vertex 6.000000000000054 4.900799999999983 4.80000000000001
    vertex 8.000000000000057 0.9999999999999654 4.80000000000001
    vertex 4.934941344458821e-14 0.9999999999999974 4.80000000000001
  endloop
endfacet
facet normal 7.88860905221012e-31 1.6653345369377353e-16 -1.0
  outer loop
    vertex 6.000000000000054 4.900799999999983 4.80000000000001
    vertex 4.934941344458821e-14 0.9999999999999974 4.80000000000001
    vertex 2.0000000000000604 4.900799999999999 4.80000000000001
  endloop
endfacet
facet normal 7.88860905221012e-31 1.6653345369377353e-16 -1.0
  outer loop
    vertex 2.0000000000000604 4.900799999999999 4.80000000000001
    vertex 4.934941344458821e-14 0.9999999999999974 4.80000000000001
    vertex 2.000000000000077 8.900799999999993 4.8000000000000105
  endloop
endfacet
facet normal 7.88860905221012e-31 1.6653345369377353e-16 -1.0
  outer loop
    vertex 2.000000000000077 8.900799999999993 4.8000000000000105
    vertex 4.934941344458821e-14 0.9999999999999974 4.80000000000001
    vertex 1.4099832412739488e-13 12.800800000000017 4.800000000000011
  endloop
endfacet
facet normal 7.88860905221012e-31 1.6653345369377353e-16 -1.0
  outer loop
    vertex 8.000000000000103 12.800799999999983 4.800000000000011
    vertex 6.000000000000069 8.900799999999975 4.8000000000000105
    vertex 1.4099832412739488e-13 12.800800000000017 4.800000000000011
  endloop
endfacet
facet normal 7.88860905221012e-31 1.6653345369377353e-16 -1.0
  outer loop
    vertex 6.000000000000069 8.900799999999975 4.8000000000000105
    vertex 8.000000000000103 12.800799999999983 4.800000000000011
    vertex 6.000000000000054 4.900799999999983 4.80000000000001
  endloop
endfacet
facet normal 7.88860905221012e-31 1.6653345369377353e-16 -1.0
  outer loop
    vertex 1.4099832412739488e-13 12.800800000000017 4.800000000000011
    vertex 6.000000000000069 8.900799999999975 4.8000000000000105
    vertex 2.000000000000077 8.900799999999993 4.8000000000000105
  endloop
endfacet
facet normal -0.7071067811865486 7.922233721483544e-15 -0.7071067811865466
  outer loop
    vertex 1.4522827385121672e-13 13.800800000000015 0.9999999999999981
    vertex 1.0000000000000024 0.9999999999999943 -1.4099832412739487e-15
    vertex 0.0 -3.524958103184872e-16 0.9999999999999968
  endloop
endfacet
facet normal -0.7071067811865486 7.922233721483544e-15 -0.7071067811865466
  outer loop
    vertex 1.0000000000000024 0.9999999999999943 -1.4099832412739487e-15
    vertex 1.4522827385121672e-13 13.800800000000015 0.9999999999999981
    vertex 1.0000000000001392 12.800800000000011 0.0
  endloop
endfacet
facet normal -1.8595749636063984e-16 1.4615665077141434e-16 -1.0
  outer loop
    vertex 3.2465147421618803 7.251932317203986 -5.639932965095795e-15
    vertex 3.2465147421620233 9.259558579830221 -5.639932965095795e-15
    vertex 3.8751006007477384 7.251932317203984 -5.639932965095795e-15
  endloop
endfacet
facet normal -1.8595749636063984e-16 1.4615665077141434e-16 -1.0
  outer loop
    vertex 7.0000000000000595 0.9999999999999699 -1.4099832412739487e-15
    vertex 5.404572839476247 5.420092883668675 -7.049916206369744e-15
    vertex 7.000000000000106 12.800799999999978 0.0
  endloop
endfacet
facet normal -1.8595749636063984e-16 1.4615665077141434e-16 -1.0
  outer loop
    vertex 5.404572839476247 5.420092883668675 -7.049916206369744e-15
    vertex 7.0000000000000595 0.9999999999999699 -1.4099832412739487e-15
    vertex 5.336322656548985 5.184173087331879 -7.049916206369744e-15
  endloop
endfacet
facet normal -1.8595749636063984e-16 1.4615665077141434e-16 -1.0
  outer loop
    vertex 5.336322656548985 5.184173087331879 -7.049916206369744e-15
    vertex 7.0000000000000595 0.9999999999999699 -1.4099832412739487e-15
    vertex 5.222571925519136 4.982328613001855 -7.049916206369744e-15
  endloop
endfacet
facet normal -1.8595749636063984e-16 1.4615665077141434e-16 -1.0
  outer loop
    vertex 5.222571925519136 4.982328613001855 -7.049916206369744e-15
    vertex 7.0000000000000595 0.9999999999999699 -1.4099832412739487e-15
    vertex 5.063320297717428 4.814558579830128 -7.049916206369744e-15
  endloop
endfacet
facet normal -1.8595749636063984e-16 1.4615665077141434e-16 -1.0
  outer loop
    vertex 5.063320297717428 4.814558579830128 -7.049916206369744e-15
    vertex 7.0000000000000595 0.9999999999999699 -1.4099832412739487e-15
    vertex 1.0000000000000024 0.9999999999999943 -1.4099832412739487e-15
  endloop
endfacet
facet normal -1.8595749636063984e-16 1.4615665077141434e-16 -1.0
  outer loop
    vertex 7.000000000000106 12.800799999999978 0.0
    vertex 5.404572839476247 5.420092883668675 -7.049916206369744e-15
    vertex 6.052701610848926 9.259558579830074 -5.639932965095795e-15
  endloop
endfacet
facet normal -1.8595749636063984e-16 1.4615665077141434e-16 -1.0
  outer loop
    vertex 6.052701610848926 9.259558579830074 -5.639932965095795e-15
    vertex 5.404572839476247 5.420092883668675 -7.049916206369744e-15
    vertex 5.4273228229701065 5.690088882860422 -7.049916206369744e-15
  endloop
endfacet
facet normal -1.8595749636063984e-16 1.4615665077141434e-16 -1.0
  outer loop
    vertex 5.063320297717428 4.814558579830128 -7.049916206369744e-15
    vertex 1.0000000000000024 0.9999999999999943 -1.4099832412739487e-15
    vertex 4.86137487144603 4.682667356577675 -7.049916206369744e-15
  endloop
endfacet
facet normal -1.8595749636063984e-16 1.4615665077141434e-16 -1.0
  outer loop
    vertex 4.86137487144603 4.682667356577675 -7.049916206369744e-15
    vertex 1.0000000000000024 0.9999999999999943 -1.4099832412739487e-15
    vertex 4.619542304582626 4.588459703493552 -7.049916206369744e-15
  endloop
endfacet
facet normal -1.8595749636063984e-16 1.4615665077141434e-16 -1.0
  outer loop
    vertex 4.619542304582626 4.588459703493552 -7.049916206369744e-15
    vertex 1.0000000000000024 0.9999999999999943 -1.4099832412739487e-15
    vertex 4.01621171185877 4.513093933365481 -7.049916206369744e-15
  endloop
endfacet
facet normal -1.8595749636063984e-16 1.4615665077141434e-16 -1.0
  outer loop
    vertex 4.01621171185877 4.513093933365481 -7.049916206369744e-15
    vertex 1.0000000000000024 0.9999999999999943 -1.4099832412739487e-15
    vertex 2.579444035091197 4.513093933365555 -7.049916206369744e-15
  endloop
endfacet
facet normal -1.8595749636063984e-16 1.4615665077141434e-16 -1.0
  outer loop
    vertex 2.579444035091197 4.513093933365555 -7.049916206369744e-15
    vertex 1.0000000000000024 0.9999999999999943 -1.4099832412739487e-15
    vertex 1.0000000000001392 12.800800000000011 0.0
  endloop
endfacet
facet normal -1.8595749636063984e-16 1.4615665077141434e-16 -1.0
  outer loop
    vertex 6.052701610848926 9.259558579830074 -5.639932965095795e-15
    vertex 1.0000000000001392 12.800800000000011 0.0
    vertex 7.000000000000106 12.800799999999978 0.0
  endloop
endfacet
facet normal -1.8595749636063984e-16 1.4615665077141434e-16 -1.0
  outer loop
    vertex 1.0000000000001392 12.800800000000011 0.0
    vertex 6.052701610848926 9.259558579830074 -5.639932965095795e-15
    vertex 5.225277368424579 9.259558579830099 -5.639932965095795e-15
  endloop
endfacet
facet normal -1.8595749636063984e-16 1.4615665077141434e-16 -1.0
  outer loop
    vertex 1.0000000000001392 12.800800000000011 0.0
    vertex 5.225277368424579 9.259558579830099 -5.639932965095795e-15
    vertex 3.2465147421620233 9.259558579830221 -5.639932965095795e-15
  endloop
endfacet
facet normal -1.8595749636063984e-16 1.4615665077141434e-16 -1.0
  outer loop
    vertex 3.2465147421620233 9.259558579830221 -5.639932965095795e-15
    vertex 5.225277368424579 9.259558579830099 -5.639932965095795e-15
    vertex 3.8751006007477384 7.251932317203984 -5.639932965095795e-15
  endloop
endfacet
facet normal -1.8595749636063984e-16 1.4615665077141434e-16 -1.0
  outer loop
    vertex 1.0000000000001392 12.800800000000011 0.0
    vertex 3.2465147421620233 9.259558579830221 -5.639932965095795e-15
    vertex 2.5794440350913064 9.259558579830221 -5.639932965095795e-15
  endloop
endfacet
facet normal -1.8595749636063984e-16 1.4615665077141434e-16 -1.0
  outer loop
    vertex 1.0000000000001392 12.800800000000011 0.0
    vertex 2.5794440350913064 9.259558579830221 -5.639932965095795e-15
    vertex 2.579444035091197 4.513093933365555 -7.049916206369744e-15
  endloop
endfacet
facet normal -1.8595749636063984e-16 1.4615665077141434e-16 -1.0
  outer loop
    vertex 6.052701610848926 9.259558579830074 -5.639932965095795e-15
    vertex 4.88793499474999 6.803744094135766 -7.049916206369744e-15
    vertex 4.468408681555835 7.037058579830161 -7.049916206369744e-15
  endloop
endfacet
facet normal -1.8595749636063984e-16 1.4615665077141434e-16 -1.0
  outer loop
    vertex 4.88793499474999 6.803744094135766 -7.049916206369744e-15
    vertex 6.052701610848926 9.259558579830074 -5.639932965095795e-15
    vertex 5.187595511016913 6.50147845685355 -7.049916206369744e-15
  endloop
endfacet
facet normal -1.8595749636063984e-16 1.4615665077141434e-16 -1.0
  outer loop
    vertex 5.187595511016913 6.50147845685355 -7.049916206369744e-15
    vertex 6.052701610848926 9.259558579830074 -5.639932965095795e-15
    vertex 5.367391147906832 6.130260456817228 -7.049916206369744e-15
  endloop
endfacet
facet normal -1.8595749636063984e-16 1.4615665077141434e-16 -1.0
  outer loop
    vertex 5.367391147906832 6.130260456817228 -7.049916206369744e-15
    vertex 6.052701610848926 9.259558579830074 -5.639932965095795e-15
    vertex 5.4273228229701065 5.690088882860422 -7.049916206369744e-15
  endloop
endfacet
facet normal -7.88860905221012e-31 -1.6653345369377353e-16 1.0
  outer loop
    vertex 8.000000000000103 12.800799999999983 5.800000000000012
    vertex 6.000000000000069 8.900799999999975 5.800000000000011
    vertex 8.000000000000057 0.999999999999965 5.8000000000000105
  endloop
endfacet
facet normal -7.88860905221012e-31 -1.6653345369377353e-16 1.0
  outer loop
    vertex 6.000000000000069 8.900799999999975 5.800000000000011
    vertex 8.000000000000103 12.800799999999983 5.800000000000012
    vertex 1.4099832412739488e-13 12.800800000000017 5.800000000000012
  endloop
endfacet
facet normal -7.88860905221012e-31 -1.6653345369377353e-16 1.0
  outer loop
    vertex 6.000000000000069 8.900799999999975 5.800000000000011
    vertex 1.4099832412739488e-13 12.800800000000017 5.800000000000012
    vertex 2.000000000000077 8.900799999999993 5.800000000000011
  endloop
endfacet
facet normal -7.88860905221012e-31 -1.6653345369377353e-16 1.0
  outer loop
    vertex 2.000000000000077 8.900799999999993 5.800000000000011
    vertex 1.4099832412739488e-13 12.800800000000017 5.800000000000012
    vertex 2.0000000000000604 4.900799999999999 5.8000000000000105
  endloop
endfacet
facet normal -7.88860905221012e-31 -1.6653345369377353e-16 1.0
  outer loop
    vertex 8.000000000000057 0.999999999999965 5.8000000000000105
    vertex 6.000000000000054 4.9007999999999825 5.8000000000000105
    vertex 4.934941344458821e-14 0.9999999999999971 5.8000000000000105
  endloop
endfacet
facet normal -7.88860905221012e-31 -1.6653345369377353e-16 1.0
  outer loop
    vertex 6.000000000000054 4.9007999999999825 5.8000000000000105
    vertex 8.000000000000057 0.999999999999965 5.8000000000000105
    vertex 6.000000000000069 8.900799999999975 5.800000000000011
  endloop
endfacet
facet normal -7.88860905221012e-31 -1.6653345369377353e-16 1.0
  outer loop
    vertex 4.934941344458821e-14 0.9999999999999971 5.8000000000000105
    vertex 6.000000000000054 4.9007999999999825 5.8000000000000105
    vertex 2.0000000000000604 4.900799999999999 5.8000000000000105
  endloop
endfacet
facet normal -7.88860905221012e-31 -1.6653345369377353e-16 1.0
  outer loop
    vertex 4.934941344458821e-14 0.9999999999999971 5.8000000000000105
    vertex 2.0000000000000604 4.900799999999999 5.8000000000000105
    vertex 1.4099832412739488e-13 12.800800000000017 5.800000000000012
  endloop
endfacet
facet normal 0.7071067811865486 -2.728035646963063e-15 -0.7071067811865466
  outer loop
    vertex 7.0000000000000595 0.9999999999999699 -1.4099832412739487e-15
    vertex 8.000000000000108 13.800799999999969 0.9999999999999981
    vertex 8.000000000000053 -3.242961454930082e-14 0.9999999999999968
  endloop
endfacet
facet normal 0.7071067811865486 -2.728035646963063e-15 -0.7071067811865466
  outer loop
    vertex 8.000000000000108 13.800799999999969 0.9999999999999981
    vertex 7.0000000000000595 0.9999999999999699 -1.4099832412739487e-15
    vertex 7.000000000000106 12.800799999999978 0.0
  endloop
endfacet
facet normal -7.88860905221012e-31 -1.6653345369377353e-16 1.0
  outer loop
    vertex 2.000000000000077 8.900800000000002 10.95620000000001
    vertex 6.000000000000054 4.9007999999999825 10.95620000000001
    vertex 6.000000000000069 8.900799999999975 10.95620000000001
  endloop
endfacet
facet normal -7.88860905221012e-31 -1.6653345369377353e-16 1.0
  outer loop
    vertex 6.000000000000054 4.9007999999999825 10.95620000000001
    vertex 2.000000000000077 8.900800000000002 10.95620000000001
    vertex 2.0000000000000604 4.9007999999999985 10.95620000000001
  endloop
endfacet
facet normal -1.0 4.024558464266192e-15 -1.1863728457425382e-31
  outer loop
    vertex 2.000000000000077 8.900800000000002 10.95620000000001
    vertex 2.0000000000000604 4.900799999999999 5.8000000000000105
    vertex 2.0000000000000604 4.9007999999999985 10.95620000000001
  endloop
endfacet
facet normal -1.0 4.024558464266192e-15 -1.1863728457425382e-31
  outer loop
    vertex 2.0000000000000604 4.900799999999999 5.8000000000000105
    vertex 2.000000000000077 8.900800000000002 10.95620000000001
    vertex 2.000000000000077 8.900799999999993 5.800000000000011
  endloop
endfacet
endsolid Untitled-54facffc
