solid Untitled-55246d10
facet normal -1.0 -3.728988773916654e-15 -9.616572276489663e-15
  outer loop
    vertex 17.999999999999968 8.000000000000032 1.7272294705605873e-13
    vertex 17.999999999999957 4.6529446962040307e-14 4.0000000000001705
    vertex 17.99999999999993 8.000000000000032 4.000000000000171
  endloop
endfacet
facet normal -1.0 -3.728988773916654e-15 -9.616572276489663e-15
  outer loop
    vertex 17.999999999999957 4.6529446962040307e-14 4.0000000000001705
    vertex 17.999999999999968 8.000000000000032 1.7272294705605873e-13
    vertex 17.999999999999996 5.780931289223189e-14 1.7272294705605873e-13
  endloop
endfacet
facet normal 1.0 3.728988773916654e-15 9.616572276489663e-15
  outer loop
    vertex 21.99999999999999 6.142239494799639e-14 2.1149748619109232e-13
    vertex 21.999999999999925 8.700000000000035 4.000000000000209
    vertex 21.99999999999995 6.142239494799639e-14 4.000000000000209
  endloop
endfacet
facet normal 1.0 3.728988773916654e-15 9.616572276489663e-15
  outer loop
    vertex 21.999999999999925 8.700000000000035 4.000000000000209
    vertex 21.99999999999999 6.142239494799639e-14 2.1149748619109232e-13
    vertex 21.999999999999964 8.700000000000035 2.1079249457045533e-13
  endloop
endfacet
facet normal 3.728988773916654e-15 -1.0 1.0346178984556235e-28
  outer loop
    vertex 21.99999999999999 6.142239494799639e-14 2.1149748619109232e-13
    vertex 17.999999999999957 4.6529446962040307e-14 4.0000000000001705
    vertex 17.999999999999996 5.780931289223189e-14 1.7272294705605873e-13
  endloop
endfacet
facet normal 3.728988773916654e-15 -1.0 1.0346178984556235e-28
  outer loop
    vertex 17.999999999999957 4.6529446962040307e-14 4.0000000000001705
    vertex 21.99999999999999 6.142239494799639e-14 2.1149748619109232e-13
    vertex 21.99999999999995 6.142239494799639e-14 4.000000000000209
  endloop
endfacet
facet normal 1.0 3.728988773916654e-15 9.616572276489663e-15
  outer loop
    vertex 3.9999999999999947 5.551809012516173e-15 3.8069547514396615e-14
    vertex 3.9999999999999263 7.99999999999998 4.000000000000036
    vertex 3.999999999999956 5.551809012516173e-15 4.000000000000036
  endloop
endfacet
facet normal 1.0 3.728988773916654e-15 9.616572276489663e-15
  outer loop
    vertex 3.9999999999999263 7.99999999999998 4.000000000000036
    vertex 3.9999999999999947 5.551809012516173e-15 3.8069547514396615e-14
    vertex 3.9999999999999645 7.99999999999998 3.8069547514396615e-14
  endloop
endfacet
facet normal 3.728988773916654e-15 -1.0 1.0346178984556235e-28
  outer loop
    vertex 3.9999999999999947 5.551809012516173e-15 3.8069547514396615e-14
    vertex -3.630706846280418e-14 1.9387269567516795e-15 3.9999999999999982
    vertex 2.114974861910923e-15 1.9387269567516795e-15 0.0
  endloop
endfacet
facet normal 3.728988773916654e-15 -1.0 1.0346178984556235e-28
  outer loop
    vertex -3.630706846280418e-14 1.9387269567516795e-15 3.9999999999999982
    vertex 3.9999999999999947 5.551809012516173e-15 3.8069547514396615e-14
    vertex 3.999999999999956 5.551809012516173e-15 4.000000000000036
  endloop
endfacet
facet normal 3.728988773916654e-15 -1.0 1.0346178984556235e-28
  outer loop
    vertex 8.499999999999956 7.9999999999999964 8.177902799388902e-14
    vertex 3.9999999999999263 7.99999999999998 4.000000000000036
    vertex 3.9999999999999645 7.99999999999998 3.8069547514396615e-14
  endloop
endfacet
facet normal 3.728988773916654e-15 -1.0 1.0346178984556235e-28
  outer loop
    vertex 3.9999999999999263 7.99999999999998 4.000000000000036
    vertex 8.499999999999956 7.9999999999999964 8.177902799388902e-14
    vertex 8.499999999999918 7.9999999999999964 4.00000000000008
  endloop
endfacet
facet normal 3.728988773916654e-15 -1.0 1.0346178984556235e-28
  outer loop
    vertex 17.999999999999968 8.000000000000032 1.7272294705605873e-13
    vertex 13.499999999999918 8.000000000000014 4.000000000000128
    vertex 13.49999999999996 8.000000000000014 1.2971845819720328e-13
  endloop
endfacet
facet normal 3.728988773916654e-15 -1.0 1.0346178984556235e-28
  outer loop
    vertex 13.499999999999918 8.000000000000014 4.000000000000128
    vertex 17.999999999999968 8.000000000000032 1.7272294705605873e-13
    vertex 17.99999999999993 8.000000000000032 4.000000000000171
  endloop
endfacet
facet normal 3.728988773916654e-15 -1.0 1.0346178984556235e-28
  outer loop
    vertex 13.499999999999964 5.00000000000002 1.2971845819720328e-13
    vertex 11.517638090205015 5.000000000000013 0.06814834742197419
    vertex 10.999999999999973 5.000000000000022 1.0574874309554616e-13
  endloop
endfacet
facet normal 3.728988773916654e-15 -1.0 1.0346178984556235e-28
  outer loop
    vertex 11.517638090205015 5.000000000000013 0.06814834742197419
    vertex 13.499999999999964 5.00000000000002 1.2971845819720328e-13
    vertex 11.999999999999964 5.000000000000015 0.26794919243123927
  endloop
endfacet
facet normal 3.728988773916654e-15 -1.0 1.0346178984556235e-28
  outer loop
    vertex 11.999999999999964 5.000000000000015 0.26794919243123927
    vertex 13.499999999999964 5.00000000000002 1.2971845819720328e-13
    vertex 12.414213562373062 5.000000000000005 0.5857864376270225
  endloop
endfacet
facet normal 3.728988773916654e-15 -1.0 1.0346178984556235e-28
  outer loop
    vertex 12.414213562373062 5.000000000000005 0.5857864376270225
    vertex 13.499999999999964 5.00000000000002 1.2971845819720328e-13
    vertex 12.732050807568847 5.000000000000029 1.0000000000001261
  endloop
endfacet
facet normal 3.728988773916654e-15 -1.0 1.0346178984556235e-28
  outer loop
    vertex 12.732050807568847 5.000000000000029 1.0000000000001261
    vertex 13.499999999999964 5.00000000000002 1.2971845819720328e-13
    vertex 12.931851652578098 5.000000000000019 1.4823619097950864
  endloop
endfacet
facet normal 3.728988773916654e-15 -1.0 1.0346178984556235e-28
  outer loop
    vertex 12.931851652578098 5.000000000000019 1.4823619097950864
    vertex 13.499999999999964 5.00000000000002 1.2971845819720328e-13
    vertex 12.999999999999948 5.00000000000003 2.0000000000001266
  endloop
endfacet
facet normal 3.728988773916654e-15 -1.0 1.0346178984556235e-28
  outer loop
    vertex 11.517638090204976 5.000000000000013 3.931851652578251
    vertex 13.499999999999924 5.00000000000002 4.000000000000128
    vertex 10.999999999999936 5.0000000000000115 4.00000000000011
  endloop
endfacet
facet normal 3.728988773916654e-15 -1.0 1.0346178984556235e-28
  outer loop
    vertex 13.499999999999924 5.00000000000002 4.000000000000128
    vertex 11.517638090204976 5.000000000000013 3.931851652578251
    vertex 11.99999999999993 5.000000000000015 3.7320508075689958
  endloop
endfacet
facet normal 3.728988773916654e-15 -1.0 1.0346178984556235e-28
  outer loop
    vertex 13.499999999999924 5.00000000000002 4.000000000000128
    vertex 11.99999999999993 5.000000000000015 3.7320508075689958
    vertex 12.414213562373035 5.000000000000016 3.4142135623732197
  endloop
endfacet
facet normal 3.728988773916654e-15 -1.0 1.0346178984556235e-28
  outer loop
    vertex 13.499999999999924 5.00000000000002 4.000000000000128
    vertex 12.414213562373035 5.000000000000016 3.4142135623732197
    vertex 12.732050807568807 5.000000000000029 3.000000000000128
  endloop
endfacet
facet normal 3.728988773916654e-15 -1.0 1.0346178984556235e-28
  outer loop
    vertex 13.499999999999924 5.00000000000002 4.000000000000128
    vertex 12.732050807568807 5.000000000000029 3.000000000000128
    vertex 12.93185165257809 5.000000000000019 2.5176380902051716
  endloop
endfacet
facet normal 3.728988773916654e-15 -1.0 1.0346178984556235e-28
  outer loop
    vertex 13.499999999999924 5.00000000000002 4.000000000000128
    vertex 12.93185165257809 5.000000000000019 2.5176380902051716
    vertex 12.999999999999948 5.00000000000003 2.0000000000001266
  endloop
endfacet
facet normal 3.728988773916654e-15 -1.0 1.0346178984556235e-28
  outer loop
    vertex 13.499999999999924 5.00000000000002 4.000000000000128
    vertex 12.999999999999948 5.00000000000003 2.0000000000001266
    vertex 13.499999999999964 5.00000000000002 1.2971845819720328e-13
  endloop
endfacet
facet normal -1.0 -3.728988773916654e-15 -9.616572276489663e-15
  outer loop
    vertex 8.499999999999956 7.9999999999999964 8.177902799388902e-14
    vertex 8.499999999999941 5.000000000000002 4.00000000000008
    vertex 8.499999999999918 7.9999999999999964 4.00000000000008
  endloop
endfacet
facet normal -1.0 -3.728988773916654e-15 -9.616572276489663e-15
  outer loop
    vertex 8.499999999999941 5.000000000000002 4.00000000000008
    vertex 8.499999999999956 7.9999999999999964 8.177902799388902e-14
    vertex 8.499999999999979 5.000000000000002 8.177902799388902e-14
  endloop
endfacet
facet normal 1.0 3.728988773916654e-15 9.616572276489663e-15
  outer loop
    vertex 13.499999999999964 5.00000000000002 1.2971845819720328e-13
    vertex 13.499999999999918 8.000000000000014 4.000000000000128
    vertex 13.499999999999924 5.00000000000002 4.000000000000128
  endloop
endfacet
facet normal 1.0 3.728988773916654e-15 9.616572276489663e-15
  outer loop
    vertex 13.499999999999918 8.000000000000014 4.000000000000128
    vertex 13.499999999999964 5.00000000000002 1.2971845819720328e-13
    vertex 13.49999999999996 8.000000000000014 1.2971845819720328e-13
  endloop
endfacet
facet normal -1.0 -3.728988773916654e-15 -9.616572276489663e-15
  outer loop
    vertex -5.745681708191341e-14 8.699999999999951 3.999999999999998
    vertex 2.114974861910923e-15 1.9387269567516795e-15 0.0
    vertex -3.630706846280418e-14 1.9387269567516795e-15 3.9999999999999982
  endloop
endfacet
facet normal -1.0 -3.728988773916654e-15 -9.616572276489663e-15
  outer loop
    vertex 2.114974861910923e-15 1.9387269567516795e-15 0.0
    vertex -5.745681708191341e-14 8.699999999999951 3.999999999999998
    vertex -1.9034773757198308e-14 8.699999999999964 -7.049916206369744e-16
  endloop
endfacet
facet normal -3.728988773916654e-15 1.0 -1.0346178984556235e-28
  outer loop
    vertex 19.799999999999915 12.000000000000032 4.000000000000188
    vertex 2.1999999999999647 11.999999999999964 2.0444756998472255e-14
    vertex 2.199999999999926 11.999999999999964 4.000000000000019
  endloop
endfacet
facet normal -3.728988773916654e-15 1.0 -1.0346178984556235e-28
  outer loop
    vertex 2.1999999999999647 11.999999999999964 2.0444756998472255e-14
    vertex 19.799999999999915 12.000000000000032 4.000000000000188
    vertex 19.799999999999955 12.000000000000043 1.896427459513461e-13
  endloop
endfacet
facet normal -9.616572276489663e-15 1.9928152849505617e-17 1.0
  outer loop
    vertex 21.999999999999925 8.700000000000035 4.000000000000209
    vertex 17.999999999999957 4.6529446962040307e-14 4.0000000000001705
    vertex 21.99999999999995 6.142239494799639e-14 4.000000000000209
  endloop
endfacet
facet normal -9.616572276489663e-15 1.9928152849505617e-17 1.0
  outer loop
    vertex 17.999999999999957 4.6529446962040307e-14 4.0000000000001705
    vertex 21.999999999999925 8.700000000000035 4.000000000000209
    vertex 17.99999999999993 8.000000000000032 4.000000000000171
  endloop
endfacet
facet normal -9.616572276489663e-15 1.9928152849505617e-17 1.0
  outer loop
    vertex 17.99999999999993 8.000000000000032 4.000000000000171
    vertex 21.999999999999925 8.700000000000035 4.000000000000209
    vertex 13.499999999999918 8.000000000000014 4.000000000000128
  endloop
endfacet
facet normal -9.616572276489663e-15 1.9928152849505617e-17 1.0
  outer loop
    vertex 13.499999999999918 8.000000000000014 4.000000000000128
    vertex 21.999999999999925 8.700000000000035 4.000000000000209
    vertex 8.499999999999918 7.9999999999999964 4.00000000000008
  endloop
endfacet
facet normal -9.616572276489663e-15 1.9928152849505617e-17 1.0
  outer loop
    vertex 8.499999999999918 7.9999999999999964 4.00000000000008
    vertex 21.999999999999925 8.700000000000035 4.000000000000209
    vertex 3.9999999999999263 7.99999999999998 4.000000000000036
  endloop
endfacet
facet normal -9.616572276489663e-15 1.9928152849505617e-17 1.0
  outer loop
    vertex 19.799999999999915 12.000000000000032 4.000000000000188
    vertex 2.199999999999938 8.69999999999996 4.000000000000019
    vertex 19.79999999999993 8.700000000000026 4.000000000000188
  endloop
endfacet
facet normal -9.616572276489663e-15 1.9928152849505617e-17 1.0
  outer loop
    vertex 2.199999999999938 8.69999999999996 4.000000000000019
    vertex 19.799999999999915 12.000000000000032 4.000000000000188
    vertex 2.199999999999926 11.999999999999964 4.000000000000019
  endloop
endfacet
facet normal -9.616572276489663e-15 1.9928152849505617e-17 1.0
  outer loop
    vertex 3.9999999999999263 7.99999999999998 4.000000000000036
    vertex -3.630706846280418e-14 1.9387269567516795e-15 3.9999999999999982
    vertex 3.999999999999956 5.551809012516173e-15 4.000000000000036
  endloop
endfacet
facet normal -9.616572276489663e-15 1.9928152849505617e-17 1.0
  outer loop
    vertex -3.630706846280418e-14 1.9387269567516795e-15 3.9999999999999982
    vertex 3.9999999999999263 7.99999999999998 4.000000000000036
    vertex -5.745681708191341e-14 8.699999999999951 3.999999999999998
  endloop
endfacet
facet normal -9.616572276489663e-15 1.9928152849505617e-17 1.0
  outer loop
    vertex -5.745681708191341e-14 8.699999999999951 3.999999999999998
    vertex 3.9999999999999263 7.99999999999998 4.000000000000036
    vertex 21.999999999999925 8.700000000000035 4.000000000000209
  endloop
endfacet
facet normal -9.616572276489663e-15 1.9928152849505617e-17 1.0
  outer loop
    vertex -5.745681708191341e-14 8.699999999999951 3.999999999999998
    vertex 21.999999999999925 8.700000000000035 4.000000000000209
    vertex 19.79999999999993 8.700000000000026 4.000000000000188
  endloop
endfacet
facet normal -9.616572276489663e-15 1.9928152849505617e-17 1.0
  outer loop
    vertex -5.745681708191341e-14 8.699999999999951 3.999999999999998
    vertex 19.79999999999993 8.700000000000026 4.000000000000188
    vertex 2.199999999999938 8.69999999999996 4.000000000000019
  endloop
endfacet
facet normal -9.616572276489663e-15 1.9928152849505617e-17 1.0
  outer loop
    vertex 13.499999999999918 8.000000000000014 4.000000000000128
    vertex 10.999999999999936 5.0000000000000115 4.00000000000011
    vertex 13.499999999999924 5.00000000000002 4.000000000000128
  endloop
endfacet
facet normal -9.616572276489663e-15 1.9928152849505617e-17 1.0
  outer loop
    vertex 10.999999999999936 5.0000000000000115 4.00000000000011
    vertex 13.499999999999918 8.000000000000014 4.000000000000128
    vertex 8.499999999999941 5.000000000000002 4.00000000000008
  endloop
endfacet
facet normal -9.616572276489663e-15 1.9928152849505617e-17 1.0
  outer loop
    vertex 8.499999999999941 5.000000000000002 4.00000000000008
    vertex 13.499999999999918 8.000000000000014 4.000000000000128
    vertex 8.499999999999918 7.9999999999999964 4.00000000000008
  endloop
endfacet
facet normal -3.728988773916654e-15 1.0 -1.0346178984556235e-28
  outer loop
    vertex 2.199999999999938 8.69999999999996 4.000000000000019
    vertex -1.9034773757198308e-14 8.699999999999964 -7.049916206369744e-16
    vertex -5.745681708191341e-14 8.699999999999951 3.999999999999998
  endloop
endfacet
facet normal -3.728988773916654e-15 1.0 -1.0346178984556235e-28
  outer loop
    vertex -1.9034773757198308e-14 8.699999999999964 -7.049916206369744e-16
    vertex 2.199999999999938 8.69999999999996 4.000000000000019
    vertex 2.199999999999977 8.69999999999997 2.0444756998472255e-14
  endloop
endfacet
facet normal 9.616572276489663e-15 -6.760169978297428e-29 -1.0
  outer loop
    vertex 8.499999999999956 7.9999999999999964 8.177902799388902e-14
    vertex 10.999999999999973 5.000000000000022 1.0574874309554616e-13
    vertex 8.499999999999979 5.000000000000002 8.177902799388902e-14
  endloop
endfacet
facet normal 9.616572276489663e-15 -6.760169978297428e-29 -1.0
  outer loop
    vertex 2.114974861910923e-15 1.9387269567516795e-15 0.0
    vertex 3.9999999999999645 7.99999999999998 3.8069547514396615e-14
    vertex 3.9999999999999947 5.551809012516173e-15 3.8069547514396615e-14
  endloop
endfacet
facet normal 9.616572276489663e-15 -6.760169978297428e-29 -1.0
  outer loop
    vertex 3.9999999999999645 7.99999999999998 3.8069547514396615e-14
    vertex 2.114974861910923e-15 1.9387269567516795e-15 0.0
    vertex -1.9034773757198308e-14 8.699999999999964 -7.049916206369744e-16
  endloop
endfacet
facet normal 9.616572276489663e-15 -6.760169978297428e-29 -1.0
  outer loop
    vertex 3.9999999999999645 7.99999999999998 3.8069547514396615e-14
    vertex -1.9034773757198308e-14 8.699999999999964 -7.049916206369744e-16
    vertex 8.499999999999956 7.9999999999999964 8.177902799388902e-14
  endloop
endfacet
facet normal 9.616572276489663e-15 -6.760169978297428e-29 -1.0
  outer loop
    vertex 8.499999999999956 7.9999999999999964 8.177902799388902e-14
    vertex -1.9034773757198308e-14 8.699999999999964 -7.049916206369744e-16
    vertex 13.49999999999996 8.000000000000014 1.2971845819720328e-13
  endloop
endfacet
facet normal 9.616572276489663e-15 -6.760169978297428e-29 -1.0
  outer loop
    vertex 13.49999999999996 8.000000000000014 1.2971845819720328e-13
    vertex -1.9034773757198308e-14 8.699999999999964 -7.049916206369744e-16
    vertex 17.999999999999968 8.000000000000032 1.7272294705605873e-13
  endloop
endfacet
facet normal 9.616572276489663e-15 -6.760169978297428e-29 -1.0
  outer loop
    vertex 17.999999999999968 8.000000000000032 1.7272294705605873e-13
    vertex -1.9034773757198308e-14 8.699999999999964 -7.049916206369744e-16
    vertex 21.999999999999964 8.700000000000035 2.1079249457045533e-13
  endloop
endfacet
facet normal 9.616572276489663e-15 -6.760169978297428e-29 -1.0
  outer loop
    vertex 21.999999999999964 8.700000000000035 2.1079249457045533e-13
    vertex -1.9034773757198308e-14 8.699999999999964 -7.049916206369744e-16
    vertex 19.79999999999997 8.700000000000038 1.896427459513461e-13
  endloop
endfacet
facet normal 9.616572276489663e-15 -6.760169978297428e-29 -1.0
  outer loop
    vertex 19.79999999999997 8.700000000000038 1.896427459513461e-13
    vertex -1.9034773757198308e-14 8.699999999999964 -7.049916206369744e-16
    vertex 2.199999999999977 8.69999999999997 2.0444756998472255e-14
  endloop
endfacet
facet normal 9.616572276489663e-15 -6.760169978297428e-29 -1.0
  outer loop
    vertex 19.79999999999997 8.700000000000038 1.896427459513461e-13
    vertex 2.199999999999977 8.69999999999997 2.0444756998472255e-14
    vertex 2.1999999999999647 11.999999999999964 2.0444756998472255e-14
  endloop
endfacet
facet normal 9.616572276489663e-15 -6.760169978297428e-29 -1.0
  outer loop
    vertex 19.79999999999997 8.700000000000038 1.896427459513461e-13
    vertex 2.1999999999999647 11.999999999999964 2.0444756998472255e-14
    vertex 19.799999999999955 12.000000000000043 1.896427459513461e-13
  endloop
endfacet
facet normal 9.616572276489663e-15 -6.760169978297428e-29 -1.0
  outer loop
    vertex 17.999999999999996 5.780931289223189e-14 1.7272294705605873e-13
    vertex 21.999999999999964 8.700000000000035 2.1079249457045533e-13
    vertex 21.99999999999999 6.142239494799639e-14 2.1149748619109232e-13
  endloop
endfacet
facet normal 9.616572276489663e-15 -6.760169978297428e-29 -1.0
  outer loop
    vertex 21.999999999999964 8.700000000000035 2.1079249457045533e-13
    vertex 17.999999999999996 5.780931289223189e-14 1.7272294705605873e-13
    vertex 17.999999999999968 8.000000000000032 1.7272294705605873e-13
  endloop
endfacet
facet normal 9.616572276489663e-15 -6.760169978297428e-29 -1.0
  outer loop
    vertex 10.999999999999973 5.000000000000022 1.0574874309554616e-13
    vertex 13.49999999999996 8.000000000000014 1.2971845819720328e-13
    vertex 13.499999999999964 5.00000000000002 1.2971845819720328e-13
  endloop
endfacet
facet normal 9.616572276489663e-15 -6.760169978297428e-29 -1.0
  outer loop
    vertex 13.49999999999996 8.000000000000014 1.2971845819720328e-13
    vertex 10.999999999999973 5.000000000000022 1.0574874309554616e-13
    vertex 8.499999999999956 7.9999999999999964 8.177902799388902e-14
  endloop
endfacet
facet normal -3.728988773916654e-15 1.0 -1.0346178984556235e-28
  outer loop
    vertex 21.999999999999925 8.700000000000035 4.000000000000209
    vertex 19.79999999999997 8.700000000000038 1.896427459513461e-13
    vertex 19.79999999999993 8.700000000000026 4.000000000000188
  endloop
endfacet
facet normal -3.728988773916654e-15 1.0 -1.0346178984556235e-28
  outer loop
    vertex 19.79999999999997 8.700000000000038 1.896427459513461e-13
    vertex 21.999999999999925 8.700000000000035 4.000000000000209
    vertex 21.999999999999964 8.700000000000035 2.1079249457045533e-13
  endloop
endfacet
facet normal 1.0 3.728988773916654e-15 9.616572276489663e-15
  outer loop
    vertex 19.79999999999997 8.700000000000038 1.896427459513461e-13
    vertex 19.799999999999915 12.000000000000032 4.000000000000188
    vertex 19.79999999999993 8.700000000000026 4.000000000000188
  endloop
endfacet
facet normal 1.0 3.728988773916654e-15 9.616572276489663e-15
  outer loop
    vertex 19.799999999999915 12.000000000000032 4.000000000000188
    vertex 19.79999999999997 8.700000000000038 1.896427459513461e-13
    vertex 19.799999999999955 12.000000000000043 1.896427459513461e-13
  endloop
endfacet
facet normal -1.0 -3.728988773916654e-15 -9.616572276489663e-15
  outer loop
    vertex 2.1999999999999647 11.999999999999964 2.0444756998472255e-14
    vertex 2.199999999999938 8.69999999999996 4.000000000000019
    vertex 2.199999999999926 11.999999999999964 4.000000000000019
  endloop
endfacet
facet normal -1.0 -3.728988773916654e-15 -9.616572276489663e-15
  outer loop
    vertex 2.199999999999938 8.69999999999996 4.000000000000019
    vertex 2.1999999999999647 11.999999999999964 2.0444756998472255e-14
    vertex 2.199999999999977 8.69999999999997 2.0444756998472255e-14
  endloop
endfacet
facet normal 3.728988773916654e-15 -1.0 1.0346178984556235e-28
  outer loop
    vertex 8.499999999999979 5.000000000000002 8.177902799388902e-14
    vertex 9.068148347421817 4.999999999999993 1.4823619097950491
    vertex 8.499999999999941 5.000000000000002 4.00000000000008
  endloop
endfacet
facet normal 3.728988773916654e-15 -1.0 1.0346178984556235e-28
  outer loop
    vertex 9.068148347421817 4.999999999999993 1.4823619097950491
    vertex 8.499999999999979 5.000000000000002 8.177902799388902e-14
    vertex 9.267949192431075 5.000000000000005 1.0000000000000873
  endloop
endfacet
facet normal 3.728988773916654e-15 -1.0 1.0346178984556235e-28
  outer loop
    vertex 9.267949192431075 5.000000000000005 1.0000000000000873
    vertex 8.499999999999979 5.000000000000002 8.177902799388902e-14
    vertex 9.58578643762687 5.000000000000005 0.5857864376269958
  endloop
endfacet
facet normal 3.728988773916654e-15 -1.0 1.0346178984556235e-28
  outer loop
    vertex 9.58578643762687 5.000000000000005 0.5857864376269958
    vertex 8.499999999999979 5.000000000000002 8.177902799388902e-14
    vertex 9.999999999999973 5.000000000000008 0.2679491924312195
  endloop
endfacet
facet normal 3.728988773916654e-15 -1.0 1.0346178984556235e-28
  outer loop
    vertex 9.999999999999973 5.000000000000008 0.2679491924312195
    vertex 8.499999999999979 5.000000000000002 8.177902799388902e-14
    vertex 10.482361909794928 5.000000000000009 0.06814834742196432
  endloop
endfacet
facet normal 3.728988773916654e-15 -1.0 1.0346178984556235e-28
  outer loop
    vertex 10.482361909794928 5.000000000000009 0.06814834742196432
    vertex 8.499999999999979 5.000000000000002 8.177902799388902e-14
    vertex 10.999999999999973 5.000000000000022 1.0574874309554616e-13
  endloop
endfacet
facet normal 3.728988773916654e-15 -1.0 1.0346178984556235e-28
  outer loop
    vertex 8.499999999999941 5.000000000000002 4.00000000000008
    vertex 9.068148347421817 4.999999999999993 1.4823619097950491
    vertex 8.99999999999996 5.0000000000000036 2.0000000000000884
  endloop
endfacet
facet normal 3.728988773916654e-15 -1.0 1.0346178984556235e-28
  outer loop
    vertex 8.499999999999941 5.000000000000002 4.00000000000008
    vertex 10.482361909794891 5.000000000000009 3.931851652578241
    vertex 10.999999999999936 5.0000000000000115 4.00000000000011
  endloop
endfacet
facet normal 3.728988773916654e-15 -1.0 1.0346178984556235e-28
  outer loop
    vertex 10.482361909794891 5.000000000000009 3.931851652578241
    vertex 8.499999999999941 5.000000000000002 4.00000000000008
    vertex 9.999999999999941 5.000000000000008 3.7320508075689762
  endloop
endfacet
facet normal 3.728988773916654e-15 -1.0 1.0346178984556235e-28
  outer loop
    vertex 9.999999999999941 5.000000000000008 3.7320508075689762
    vertex 8.499999999999941 5.000000000000002 4.00000000000008
    vertex 9.585786437626844 5.000000000000005 3.414213562373193
  endloop
endfacet
facet normal 3.728988773916654e-15 -1.0 1.0346178984556235e-28
  outer loop
    vertex 9.585786437626844 5.000000000000005 3.414213562373193
    vertex 8.499999999999941 5.000000000000002 4.00000000000008
    vertex 9.267949192431056 5.000000000000005 3.000000000000089
  endloop
endfacet
facet normal 3.728988773916654e-15 -1.0 1.0346178984556235e-28
  outer loop
    vertex 9.267949192431056 5.000000000000005 3.000000000000089
    vertex 8.499999999999941 5.000000000000002 4.00000000000008
    vertex 9.068148347421806 5.000000000000004 2.517638090205129
  endloop
endfacet
facet normal 3.728988773916654e-15 -1.0 1.0346178984556235e-28
  outer loop
    vertex 9.068148347421806 5.000000000000004 2.517638090205129
    vertex 8.499999999999941 5.000000000000002 4.00000000000008
    vertex 8.99999999999996 5.0000000000000036 2.0000000000000884
  endloop
endfacet
facet normal 3.728988773916654e-15 -1.0 1.0346178984556235e-28
  outer loop
    vertex 9.068148347421824 1.9387269567516795e-15 1.482361909795049
    vertex 9.068148347421813 1.9387269567516795e-15 2.5176380902051285
    vertex 8.999999999999966 1.674355099012814e-15 2.000000000000088
  endloop
endfacet
facet normal 3.728988773916654e-15 -1.0 1.0346178984556235e-28
  outer loop
    vertex 9.068148347421813 1.9387269567516795e-15 2.5176380902051285
    vertex 9.068148347421824 1.9387269567516795e-15 1.482361909795049
    vertex 9.267949192431082 2.643718577388654e-15 1.000000000000087
  endloop
endfacet
facet normal 3.728988773916654e-15 -1.0 1.0346178984556235e-28
  outer loop
    vertex 9.068148347421813 1.9387269567516795e-15 2.5176380902051285
    vertex 9.267949192431082 2.643718577388654e-15 1.000000000000087
    vertex 9.267949192431063 2.643718577388654e-15 3.000000000000089
  endloop
endfacet
facet normal 3.728988773916654e-15 -1.0 1.0346178984556235e-28
  outer loop
    vertex 9.267949192431063 2.643718577388654e-15 3.000000000000089
    vertex 9.267949192431082 2.643718577388654e-15 1.000000000000087
    vertex 9.585786437626878 3.877453913503359e-15 0.5857864376269958
  endloop
endfacet
facet normal 3.728988773916654e-15 -1.0 1.0346178984556235e-28
  outer loop
    vertex 9.267949192431063 2.643718577388654e-15 3.000000000000089
    vertex 9.585786437626878 3.877453913503359e-15 0.5857864376269958
    vertex 9.585786437626851 1.515731984369495e-14 3.414213562373193
  endloop
endfacet
facet normal 3.728988773916654e-15 -1.0 1.0346178984556235e-28
  outer loop
    vertex 9.585786437626851 1.515731984369495e-14 3.414213562373193
    vertex 9.585786437626878 3.877453913503359e-15 0.5857864376269958
    vertex 9.99999999999998 5.375561107356929e-15 0.2679491924312195
  endloop
endfacet
facet normal 3.728988773916654e-15 -1.0 1.0346178984556235e-28
  outer loop
    vertex 9.585786437626851 1.515731984369495e-14 3.414213562373193
    vertex 9.99999999999998 5.375561107356929e-15 0.2679491924312195
    vertex 9.999999999999948 5.375561107356929e-15 3.7320508075689762
  endloop
endfacet
facet normal 3.728988773916654e-15 -1.0 1.0346178984556235e-28
  outer loop
    vertex 9.999999999999948 5.375561107356929e-15 3.7320508075689762
    vertex 9.99999999999998 5.375561107356929e-15 0.2679491924312195
    vertex 10.482361909794935 7.226164111528987e-15 0.06814834742196432
  endloop
endfacet
facet normal 3.728988773916654e-15 -1.0 1.0346178984556235e-28
  outer loop
    vertex 9.999999999999948 5.375561107356929e-15 3.7320508075689762
    vertex 10.482361909794935 7.226164111528987e-15 0.06814834742196432
    vertex 10.482361909794898 7.226164111528987e-15 3.931851652578241
  endloop
endfacet
facet normal 3.728988773916654e-15 -1.0 1.0346178984556235e-28
  outer loop
    vertex 10.482361909794898 7.226164111528987e-15 3.931851652578241
    vertex 10.482361909794935 7.226164111528987e-15 0.06814834742196432
    vertex 10.99999999999998 2.0444756998472255e-14 1.0574874309554616e-13
  endloop
endfacet
facet normal 3.728988773916654e-15 -1.0 1.0346178984556235e-28
  outer loop
    vertex 10.482361909794898 7.226164111528987e-15 3.931851652578241
    vertex 10.99999999999998 2.0444756998472255e-14 1.0574874309554616e-13
    vertex 10.999999999999943 9.164891068280667e-15 4.00000000000011
  endloop
endfacet
facet normal 3.728988773916654e-15 -1.0 1.0346178984556235e-28
  outer loop
    vertex 10.999999999999943 9.164891068280667e-15 4.00000000000011
    vertex 10.99999999999998 2.0444756998472255e-14 1.0574874309554616e-13
    vertex 11.517638090205033 1.1103618025032346e-14 0.06814834742197419
  endloop
endfacet
facet normal 3.728988773916654e-15 -1.0 1.0346178984556235e-28
  outer loop
    vertex 10.999999999999943 9.164891068280667e-15 4.00000000000011
    vertex 11.517638090205033 1.1103618025032346e-14 0.06814834742197419
    vertex 11.517638090204994 1.1103618025032346e-14 3.931851652578251
  endloop
endfacet
facet normal 3.728988773916654e-15 -1.0 1.0346178984556235e-28
  outer loop
    vertex 11.517638090204994 1.1103618025032346e-14 3.931851652578251
    vertex 11.517638090205033 1.1103618025032346e-14 0.06814834742197419
    vertex 11.999999999999982 1.2866097076624782e-14 0.26794919243123927
  endloop
endfacet
facet normal 3.728988773916654e-15 -1.0 1.0346178984556235e-28
  outer loop
    vertex 11.517638090204994 1.1103618025032346e-14 3.931851652578251
    vertex 11.999999999999982 1.2866097076624782e-14 0.26794919243123927
    vertex 11.99999999999995 1.2866097076624782e-14 3.7320508075689958
  endloop
endfacet
facet normal 3.728988773916654e-15 -1.0 1.0346178984556235e-28
  outer loop
    vertex 11.99999999999995 1.2866097076624782e-14 3.7320508075689958
    vertex 11.999999999999982 1.2866097076624782e-14 0.26794919243123927
    vertex 12.41421356237308 3.1724622928663847e-15 0.5857864376270225
  endloop
endfacet
facet normal 3.728988773916654e-15 -1.0 1.0346178984556235e-28
  outer loop
    vertex 11.99999999999995 1.2866097076624782e-14 3.7320508075689958
    vertex 12.41421356237308 3.1724622928663847e-15 0.5857864376270225
    vertex 12.414213562373053 1.4452328223057973e-14 3.4142135623732197
  endloop
endfacet
facet normal 3.728988773916654e-15 -1.0 1.0346178984556235e-28
  outer loop
    vertex 12.414213562373053 1.4452328223057973e-14 3.4142135623732197
    vertex 12.41421356237308 3.1724622928663847e-15 0.5857864376270225
    vertex 12.732050807568866 2.687780553678465e-14 1.0000000000001257
  endloop
endfacet
facet normal 3.728988773916654e-15 -1.0 1.0346178984556235e-28
  outer loop
    vertex 12.414213562373053 1.4452328223057973e-14 3.4142135623732197
    vertex 12.732050807568866 2.687780553678465e-14 1.0000000000001257
    vertex 12.732050807568823 2.687780553678465e-14 3.000000000000128
  endloop
endfacet
facet normal 3.728988773916654e-15 -1.0 1.0346178984556235e-28
  outer loop
    vertex 12.732050807568823 2.687780553678465e-14 3.000000000000128
    vertex 12.732050807568866 2.687780553678465e-14 1.0000000000001257
    vertex 12.931851652578107 1.6302931227230033e-14 2.5176380902051716
  endloop
endfacet
facet normal 3.728988773916654e-15 -1.0 1.0346178984556235e-28
  outer loop
    vertex 12.931851652578107 1.6302931227230033e-14 2.5176380902051716
    vertex 12.732050807568866 2.687780553678465e-14 1.0000000000001257
    vertex 12.931851652578118 1.6302931227230033e-14 1.4823619097950862
  endloop
endfacet
facet normal 3.728988773916654e-15 -1.0 1.0346178984556235e-28
  outer loop
    vertex 12.931851652578107 1.6302931227230033e-14 2.5176380902051716
    vertex 12.931851652578118 1.6302931227230033e-14 1.4823619097950862
    vertex 12.999999999999964 2.7847169015160488e-14 2.0000000000001266
  endloop
endfacet
facet normal 1.0 3.7289887739166535e-15 8.91259459473357e-15
  outer loop
    vertex 12.999999999999964 2.7847169015160488e-14 2.0000000000001266
    vertex 12.931851652578098 5.000000000000019 1.4823619097950864
    vertex 12.999999999999948 5.00000000000003 2.0000000000001266
  endloop
endfacet
facet normal 0.9659258262890745 3.601926562668101e-15 -0.2588190451024974
  outer loop
    vertex 12.931851652578098 5.000000000000019 1.4823619097950864
    vertex 12.999999999999964 2.7847169015160488e-14 2.0000000000001266
    vertex 12.931851652578118 1.6302931227230033e-14 1.4823619097950862
  endloop
endfacet
facet normal 0.9659258262890646 3.6019265626681165e-15 0.25881904510253445
  outer loop
    vertex 12.931851652578107 1.6302931227230033e-14 2.5176380902051716
    vertex 12.999999999999948 5.00000000000003 2.0000000000001266
    vertex 12.93185165257809 5.000000000000019 2.5176380902051716
  endloop
endfacet
facet normal 1.0 3.7289887739166535e-15 8.921505704629197e-15
  outer loop
    vertex 12.999999999999948 5.00000000000003 2.0000000000001266
    vertex 12.931851652578107 1.6302931227230033e-14 2.5176380902051716
    vertex 12.999999999999964 2.7847169015160488e-14 2.0000000000001266
  endloop
endfacet
facet normal 0.8660254037844312 3.2293990086388333e-15 0.5000000000000131
  outer loop
    vertex 12.732050807568823 2.687780553678465e-14 3.000000000000128
    vertex 12.93185165257809 5.000000000000019 2.5176380902051716
    vertex 12.732050807568807 5.000000000000029 3.000000000000128
  endloop
endfacet
facet normal 0.9659258262890648 3.601926562668117e-15 0.25881904510253456
  outer loop
    vertex 12.93185165257809 5.000000000000019 2.5176380902051716
    vertex 12.732050807568823 2.687780553678465e-14 3.000000000000128
    vertex 12.931851652578107 1.6302931227230033e-14 2.5176380902051716
  endloop
endfacet
facet normal 0.8660254037844312 3.2293990086388333e-15 0.5000000000000131
  outer loop
    vertex 12.732050807568823 2.687780553678465e-14 3.000000000000128
    vertex 12.414213562373035 5.000000000000016 3.4142135623732197
    vertex 12.414213562373053 1.4452328223057973e-14 3.4142135623732197
  endloop
endfacet
facet normal 0.7071067811865451 2.6367932490050407e-15 0.7071067811865499
  outer loop
    vertex 12.414213562373035 5.000000000000016 3.4142135623732197
    vertex 12.732050807568823 2.687780553678465e-14 3.000000000000128
    vertex 12.732050807568807 5.000000000000029 3.000000000000128
  endloop
endfacet
facet normal 0.7071067811865451 2.6367932490050407e-15 0.7071067811865499
  outer loop
    vertex 12.414213562373035 5.000000000000016 3.4142135623732197
    vertex 11.99999999999995 1.2866097076624782e-14 3.7320508075689958
    vertex 12.414213562373053 1.4452328223057973e-14 3.4142135623732197
  endloop
endfacet
facet normal 0.4999999999999899 1.8644943869583796e-15 0.8660254037844445
  outer loop
    vertex 11.99999999999995 1.2866097076624782e-14 3.7320508075689958
    vertex 12.414213562373035 5.000000000000016 3.4142135623732197
    vertex 11.99999999999993 5.000000000000015 3.7320508075689958
  endloop
endfacet
facet normal 0.4999999999999899 1.8644943869583796e-15 0.8660254037844445
  outer loop
    vertex 11.99999999999993 5.000000000000015 3.7320508075689958
    vertex 11.517638090204994 1.1103618025032346e-14 3.931851652578251
    vertex 11.99999999999995 1.2866097076624782e-14 3.7320508075689958
  endloop
endfacet
facet normal 0.2588190451025139 9.651333136632024e-16 0.9659258262890701
  outer loop
    vertex 11.517638090204994 1.1103618025032346e-14 3.931851652578251
    vertex 11.99999999999993 5.000000000000015 3.7320508075689958
    vertex 11.517638090204976 5.000000000000013 3.931851652578251
  endloop
endfacet
facet normal 0.2588190451025139 9.651333136632024e-16 0.9659258262890701
  outer loop
    vertex 11.517638090204976 5.000000000000013 3.931851652578251
    vertex 10.999999999999943 9.164891068280667e-15 4.00000000000011
    vertex 11.517638090204994 1.1103618025032346e-14 3.931851652578251
  endloop
endfacet
facet normal -9.794794474402601e-15 6.693711120769418e-29 1.0
  outer loop
    vertex 10.999999999999943 9.164891068280667e-15 4.00000000000011
    vertex 11.517638090204976 5.000000000000013 3.931851652578251
    vertex 10.999999999999936 5.0000000000000115 4.00000000000011
  endloop
endfacet
facet normal -9.438350078576725e-15 6.826628835825438e-29 1.0
  outer loop
    vertex 10.999999999999936 5.0000000000000115 4.00000000000011
    vertex 10.482361909794898 7.226164111528987e-15 3.931851652578241
    vertex 10.999999999999943 9.164891068280667e-15 4.00000000000011
  endloop
endfacet
facet normal -0.2588190451025326 -9.651333136630724e-16 0.9659258262890652
  outer loop
    vertex 10.482361909794898 7.226164111528987e-15 3.931851652578241
    vertex 10.999999999999936 5.0000000000000115 4.00000000000011
    vertex 10.482361909794891 5.000000000000009 3.931851652578241
  endloop
endfacet
facet normal -0.2588190451025323 -9.651333136630712e-16 0.9659258262890653
  outer loop
    vertex 10.482361909794891 5.000000000000009 3.931851652578241
    vertex 9.999999999999948 5.375561107356929e-15 3.7320508075689762
    vertex 10.482361909794898 7.226164111528987e-15 3.931851652578241
  endloop
endfacet
facet normal -0.500000000000006 -1.86449438695826e-15 0.8660254037844353
  outer loop
    vertex 9.999999999999948 5.375561107356929e-15 3.7320508075689762
    vertex 10.482361909794891 5.000000000000009 3.931851652578241
    vertex 9.999999999999941 5.000000000000008 3.7320508075689762
  endloop
endfacet
facet normal -0.5000000000000064 -1.8644943869582617e-15 0.8660254037844349
  outer loop
    vertex 9.999999999999941 5.000000000000008 3.7320508075689762
    vertex 9.585786437626851 1.515731984369495e-14 3.414213562373193
    vertex 9.999999999999948 5.375561107356929e-15 3.7320508075689762
  endloop
endfacet
facet normal -0.7071067811865483 -2.636793249004906e-15 0.7071067811865467
  outer loop
    vertex 9.585786437626851 1.515731984369495e-14 3.414213562373193
    vertex 9.999999999999941 5.000000000000008 3.7320508075689762
    vertex 9.585786437626844 5.000000000000005 3.414213562373193
  endloop
endfacet
facet normal -0.8660254037844437 -3.2293990086387765e-15 0.49999999999999123
  outer loop
    vertex 9.267949192431056 5.000000000000005 3.000000000000089
    vertex 9.585786437626851 1.515731984369495e-14 3.414213562373193
    vertex 9.585786437626844 5.000000000000005 3.414213562373193
  endloop
endfacet
facet normal -0.7071067811865483 -2.636793249004906e-15 0.7071067811865467
  outer loop
    vertex 9.585786437626851 1.515731984369495e-14 3.414213562373193
    vertex 9.267949192431056 5.000000000000005 3.000000000000089
    vertex 9.267949192431063 2.643718577388654e-15 3.000000000000089
  endloop
endfacet
facet normal -0.9659258262890746 -3.6019265626681015e-15 0.2588190451024975
  outer loop
    vertex 9.068148347421806 5.000000000000004 2.517638090205129
    vertex 9.267949192431063 2.643718577388654e-15 3.000000000000089
    vertex 9.267949192431056 5.000000000000005 3.000000000000089
  endloop
endfacet
facet normal -0.8660254037844444 -3.229399008638779e-15 0.4999999999999902
  outer loop
    vertex 9.267949192431063 2.643718577388654e-15 3.000000000000089
    vertex 9.068148347421806 5.000000000000004 2.517638090205129
    vertex 9.068148347421813 1.9387269567516795e-15 2.5176380902051285
  endloop
endfacet
facet normal -1.0 -3.7289887739166535e-15 -8.707639067133676e-15
  outer loop
    vertex 8.99999999999996 5.0000000000000036 2.0000000000000884
    vertex 9.068148347421813 1.9387269567516795e-15 2.5176380902051285
    vertex 9.068148347421806 5.000000000000004 2.517638090205129
  endloop
endfacet
facet normal -0.9659258262890746 -3.6019265626681015e-15 0.25881904510249737
  outer loop
    vertex 9.068148347421813 1.9387269567516795e-15 2.5176380902051285
    vertex 8.99999999999996 5.0000000000000036 2.0000000000000884
    vertex 8.999999999999966 1.674355099012814e-15 2.000000000000088
  endloop
endfacet
facet normal -0.9659258262890702 -3.601926562668138e-15 -0.258819045102514
  outer loop
    vertex 9.068148347421817 4.999999999999993 1.4823619097950491
    vertex 8.999999999999966 1.674355099012814e-15 2.000000000000088
    vertex 8.99999999999996 5.0000000000000036 2.0000000000000884
  endloop
endfacet
facet normal -1.0 -3.7289887739166535e-15 -9.62548338638531e-15
  outer loop
    vertex 8.999999999999966 1.674355099012814e-15 2.000000000000088
    vertex 9.068148347421817 4.999999999999993 1.4823619097950491
    vertex 9.068148347421824 1.9387269567516795e-15 1.482361909795049
  endloop
endfacet
facet normal -0.8660254037844332 -3.2293990086388404e-15 -0.5000000000000098
  outer loop
    vertex 9.267949192431075 5.000000000000005 1.0000000000000873
    vertex 9.068148347421824 1.9387269567516795e-15 1.482361909795049
    vertex 9.068148347421817 4.999999999999993 1.4823619097950491
  endloop
endfacet
facet normal -0.9659258262890701 -3.601926562668137e-15 -0.25881904510251397
  outer loop
    vertex 9.068148347421824 1.9387269567516795e-15 1.482361909795049
    vertex 9.267949192431075 5.000000000000005 1.0000000000000873
    vertex 9.267949192431082 2.643718577388654e-15 1.000000000000087
  endloop
endfacet
facet normal -0.7071067811865324 -2.636793249004993e-15 -0.7071067811865628
  outer loop
    vertex 9.58578643762687 5.000000000000005 0.5857864376269958
    vertex 9.267949192431082 2.643718577388654e-15 1.000000000000087
    vertex 9.267949192431075 5.000000000000005 1.0000000000000873
  endloop
endfacet
facet normal -0.8660254037844336 -3.2293990086388424e-15 -0.5000000000000088
  outer loop
    vertex 9.267949192431082 2.643718577388654e-15 1.000000000000087
    vertex 9.58578643762687 5.000000000000005 0.5857864376269958
    vertex 9.585786437626878 3.877453913503359e-15 0.5857864376269958
  endloop
endfacet
facet normal -0.7071067811865324 -2.636793249004993e-15 -0.7071067811865628
  outer loop
    vertex 9.58578643762687 5.000000000000005 0.5857864376269958
    vertex 9.99999999999998 5.375561107356929e-15 0.2679491924312195
    vertex 9.585786437626878 3.877453913503359e-15 0.5857864376269958
  endloop
endfacet
facet normal -0.4999999999999901 -1.8644943869583804e-15 -0.8660254037844446
  outer loop
    vertex 9.99999999999998 5.375561107356929e-15 0.2679491924312195
    vertex 9.58578643762687 5.000000000000005 0.5857864376269958
    vertex 9.999999999999973 5.000000000000008 0.2679491924312195
  endloop
endfacet
facet normal -0.49999999999998984 -1.8644943869583796e-15 -0.8660254037844447
  outer loop
    vertex 9.999999999999973 5.000000000000008 0.2679491924312195
    vertex 10.482361909794935 7.226164111528987e-15 0.06814834742196432
    vertex 9.99999999999998 5.375561107356929e-15 0.2679491924312195
  endloop
endfacet
facet normal -0.25881904510251497 -9.651333136632063e-16 -0.96592582628907
  outer loop
    vertex 10.482361909794935 7.226164111528987e-15 0.06814834742196432
    vertex 9.999999999999973 5.000000000000008 0.2679491924312195
    vertex 10.482361909794928 5.000000000000009 0.06814834742196432
  endloop
endfacet
facet normal 0.2588190451025316 9.651333136630689e-16 -0.9659258262890655
  outer loop
    vertex 11.517638090205015 5.000000000000013 0.06814834742197419
    vertex 11.999999999999982 1.2866097076624782e-14 0.26794919243123927
    vertex 11.517638090205033 1.1103618025032346e-14 0.06814834742197419
  endloop
endfacet
facet normal 0.5000000000000074 1.8644943869582652e-15 -0.8660254037844345
  outer loop
    vertex 11.999999999999982 1.2866097076624782e-14 0.26794919243123927
    vertex 11.517638090205015 5.000000000000013 0.06814834742197419
    vertex 11.999999999999964 5.000000000000015 0.26794919243123927
  endloop
endfacet
facet normal 0.5000000000000074 1.8644943869582652e-15 -0.8660254037844345
  outer loop
    vertex 11.999999999999982 1.2866097076624782e-14 0.26794919243123927
    vertex 12.414213562373062 5.000000000000005 0.5857864376270225
    vertex 12.41421356237308 3.1724622928663847e-15 0.5857864376270225
  endloop
endfacet
facet normal 0.7071067811865489 2.6367932490049078e-15 -0.7071067811865462
  outer loop
    vertex 12.414213562373062 5.000000000000005 0.5857864376270225
    vertex 11.999999999999982 1.2866097076624782e-14 0.26794919243123927
    vertex 11.999999999999964 5.000000000000015 0.26794919243123927
  endloop
endfacet
facet normal 0.8660254037844434 3.2293990086387753e-15 -0.4999999999999919
  outer loop
    vertex 12.732050807568866 2.687780553678465e-14 1.0000000000001257
    vertex 12.414213562373062 5.000000000000005 0.5857864376270225
    vertex 12.732050807568847 5.000000000000029 1.0000000000001261
  endloop
endfacet
facet normal 0.7071067811865489 2.6367932490049078e-15 -0.7071067811865462
  outer loop
    vertex 12.414213562373062 5.000000000000005 0.5857864376270225
    vertex 12.732050807568866 2.687780553678465e-14 1.0000000000001257
    vertex 12.41421356237308 3.1724622928663847e-15 0.5857864376270225
  endloop
endfacet
facet normal 0.9659258262890745 3.601926562668101e-15 -0.2588190451024974
  outer loop
    vertex 12.931851652578118 1.6302931227230033e-14 1.4823619097950862
    vertex 12.732050807568847 5.000000000000029 1.0000000000001261
    vertex 12.931851652578098 5.000000000000019 1.4823619097950864
  endloop
endfacet
facet normal 0.8660254037844444 3.229399008638779e-15 -0.4999999999999904
  outer loop
    vertex 12.732050807568847 5.000000000000029 1.0000000000001261
    vertex 12.931851652578118 1.6302931227230033e-14 1.4823619097950862
    vertex 12.732050807568866 2.687780553678465e-14 1.0000000000001257
  endloop
endfacet
facet normal 9.42943896868108e-15 -6.829951778701837e-29 -1.0
  outer loop
    vertex 10.99999999999998 2.0444756998472255e-14 1.0574874309554616e-13
    vertex 11.517638090205015 5.000000000000013 0.06814834742197419
    vertex 11.517638090205033 1.1103618025032346e-14 0.06814834742197419
  endloop
endfacet
facet normal 0.2588190451025316 9.651333136630689e-16 -0.9659258262890655
  outer loop
    vertex 11.517638090205015 5.000000000000013 0.06814834742197419
    vertex 10.99999999999998 2.0444756998472255e-14 1.0574874309554616e-13
    vertex 10.999999999999973 5.000000000000022 1.0574874309554616e-13
  endloop
endfacet
facet normal -0.2588190451025129 -9.651333136631986e-16 -0.9659258262890705
  outer loop
    vertex 10.482361909794928 5.000000000000009 0.06814834742196432
    vertex 10.99999999999998 2.0444756998472255e-14 1.0574874309554616e-13
    vertex 10.482361909794935 7.226164111528987e-15 0.06814834742196432
  endloop
endfacet
facet normal 9.42943896868108e-15 -6.829951778701837e-29 -1.0
  outer loop
    vertex 10.99999999999998 2.0444756998472255e-14 1.0574874309554616e-13
    vertex 10.482361909794928 5.000000000000009 0.06814834742196432
    vertex 10.999999999999973 5.000000000000022 1.0574874309554616e-13
  endloop
endfacet
endsolid Untitled-55246d10
